<svg id="Layer_1" data-name="Layer 1" xmlns="http://www.w3.org/2000/svg" xmlns:xlink="http://www.w3.org/1999/xlink" viewBox="0 0 1955.52 1183.01"><defs><style>.cls-1{fill:none;}.cls-2{clip-path:url(#clip-path);}.cls-3{fill:#dbd5b5;}.cls-4{fill:#2b9eb3;}.cls-5{isolation:isolate;}.cls-6{fill:#f8333c;}.cls-7{fill:#fff;}</style><clipPath id="clip-path" transform="translate(0 118.51)"><rect class="cls-1" width="1500" height="500"/></clipPath></defs><title>GithubSocialBanner-outlines</title><g class="cls-2"><g id="Bryan_Murphy_Dev_-_GitHub_Banner" data-name="Bryan Murphy Dev - GitHub Banner"><rect class="cls-3" y="118.51" width="1500" height="500"/><rect id="Rectangle_24-2" data-name="Rectangle 24-2" class="cls-4" x="431" y="223" width="1500" height="500" transform="translate(-78.27 772.38) rotate(-30)"/><g id="Bryan_Murphy" data-name="Bryan Murphy" class="cls-5"><g class="cls-5"><path class="cls-6" d="M155.16,125.64h17c3.6,0,8.4.4,11.76,3.68a12.45,12.45,0,0,1,3.44,9.12,13.53,13.53,0,0,1-2.48,8.32,10.9,10.9,0,0,1-5.6,4.08,13.22,13.22,0,0,1,6.08,3.2,10.88,10.88,0,0,1,3.44,8.48A15.72,15.72,0,0,1,184.52,174c-4.24,4.24-10.48,5-16.08,5H148.6Zm7,43.76h4.48c2.32,0,6.08-.24,8-2a6.55,6.55,0,0,0,1.92-5.12,5.64,5.64,0,0,0-1.44-4c-1.76-1.76-5.44-1.84-6.56-1.84h-4.8Zm2.72-22.08h2.48c2.08,0,5-.24,6.8-2a6.78,6.78,0,0,0,1.84-4.8,5.07,5.07,0,0,0-1.68-4c-1.52-1.2-3.68-1.28-5.44-1.28h-2.56Z" transform="translate(0 118.51)"/><path class="cls-6" d="M199.4,143.32h11.52l-1,5.28a11.17,11.17,0,0,1,4.48-4.72,13.35,13.35,0,0,1,6-1.44,18.57,18.57,0,0,1,4.72.56l-2.24,10.72a11.07,11.07,0,0,0-5-1.2,8.49,8.49,0,0,0-5.92,2.16c-2,1.92-3,5.28-3.44,9.12L206.52,179H195Z" transform="translate(0 118.51)"/><path class="cls-6" d="M241.72,174.44l-13.84-31.12H241l7.92,19.52,12-19.52h13.52l-34.48,54H227Z" transform="translate(0 118.51)"/><path class="cls-6" d="M305.4,143.32h11.52L312.52,179H301l.88-4.08a15.51,15.51,0,0,1-5,4,17,17,0,0,1-6.64,1.28c-4.4,0-7.92-1.12-11-4.4-2.64-2.8-4.8-7-4.8-13.12,0-6.56,2.32-11.84,5.76-15.36a17.48,17.48,0,0,1,13.12-5.2,16.08,16.08,0,0,1,7,1.36,12.85,12.85,0,0,1,4.88,4.16Zm-16.48,11.36a10.11,10.11,0,0,0-2.72,7.12,8.59,8.59,0,0,0,2.32,6.08,8,8,0,0,0,6.08,2.4,9.3,9.3,0,0,0,6.56-2.4,10.89,10.89,0,0,0,3-7.68,8.23,8.23,0,0,0-2.48-6.16,8.48,8.48,0,0,0-6-2A9,9,0,0,0,288.92,154.68Z" transform="translate(0 118.51)"/><path class="cls-6" d="M337.8,143.32l-.56,3.92a17,17,0,0,1,4.4-3.36,13.4,13.4,0,0,1,7-1.52c3,0,6.56.4,9.28,3s3,6.32,3,8.48a54.24,54.24,0,0,1-.56,6.8L358.28,179H346.76l1.92-15.44a42.37,42.37,0,0,0,.48-5.76,6.14,6.14,0,0,0-1.44-4.32,5.92,5.92,0,0,0-4.24-1.52,6.92,6.92,0,0,0-5.2,1.92c-2.08,2.16-2.56,5.6-2.8,7.52L333.4,179H321.88l4.4-35.68Z" transform="translate(0 118.51)"/><path class="cls-6" d="M384.76,179,400,125.64h10.16l9.12,31.92,17.28-31.92H447L448.92,179H436.6l-.32-31.84-17,31.84H414.6l-9.36-31.84L397.08,179Z" transform="translate(0 118.51)"/><path class="cls-6" d="M497.64,143.32,495.4,162.6c-.48,4.24-1.2,9.2-5.2,13-4.24,4.08-9.92,4.56-14,4.56-3.6,0-9.92-.24-13.93-4.08a13.3,13.3,0,0,1-3.83-9.6,46.18,46.18,0,0,1,.39-5L461,143.32h11.52l-2.08,17.76c-.24,2.24-.4,3-.4,3.92a5.12,5.12,0,0,0,1.52,3.92,8,8,0,0,0,10-.48c.48-.48,1.84-2.16,2.32-6.4l2.24-18.72Z" transform="translate(0 118.51)"/><path class="cls-6" d="M506.75,143.32h11.52l-1,5.28a11.17,11.17,0,0,1,4.48-4.72,13.35,13.35,0,0,1,6-1.44,18.57,18.57,0,0,1,4.72.56l-2.24,10.72a11.07,11.07,0,0,0-5-1.2,8.49,8.49,0,0,0-5.92,2.16c-2,1.92-3,5.28-3.44,9.12L513.87,179H502.35Z" transform="translate(0 118.51)"/><path class="cls-6" d="M542.51,197.32H531l6.64-54h11.52l-.64,4.16A14.9,14.9,0,0,1,553,143.8a15.32,15.32,0,0,1,7.36-1.68c5.52,0,8.88,2.08,10.8,3.92,2.88,2.88,4.72,7.84,4.72,13.36,0,6.8-2.48,12.48-6,16a16,16,0,0,1-12.08,4.8,16.63,16.63,0,0,1-7.76-1.52,13.42,13.42,0,0,1-4.64-4.08Zm6.64-42.56a9.65,9.65,0,0,0-2.88,7.2,7.94,7.94,0,0,0,8.16,8.32,9.44,9.44,0,0,0,6.4-2.48,11.33,11.33,0,0,0,3.2-7.68,7.8,7.8,0,0,0-8.16-8.08A9,9,0,0,0,549.15,154.76Z" transform="translate(0 118.51)"/><path class="cls-6" d="M600,120.68l-3.36,26.56a17.32,17.32,0,0,1,4.4-3.36,13.93,13.93,0,0,1,7.28-1.52c2.8,0,6.32.4,9,3s3,6.32,3,8.48a54.24,54.24,0,0,1-.56,6.8L617.63,179H606.11L608,163.56a42.37,42.37,0,0,0,.48-5.76,6.14,6.14,0,0,0-1.44-4.32A5.8,5.8,0,0,0,603,152a7,7,0,0,0-5.36,1.92c-2.08,2.08-2.56,5.6-2.8,7.52L592.75,179H581.23l7.2-58.32Z" transform="translate(0 118.51)"/><path class="cls-6" d="M640,174.44l-13.84-31.12h13.12l7.92,19.52,12-19.52h13.52l-34.48,54h-13Z" transform="translate(0 118.51)"/></g></g><g id="Design_Focused_Full_Stack_Engineer" data-name="Design Focused Full Stack Engineer" class="cls-5"><g class="cls-5"><path class="cls-6" d="M330.06,223h5.81c3.6,0,8.69.53,12.34,4,2,1.92,3.89,5.08,3.89,10.36,0,3.7-.87,8.88-4.66,12.77-3.93,4-9,4.9-15.12,4.9h-6.19Zm.05,28.66h2.35c5.24,0,9.27-.86,12.2-3.79,3.21-3.22,3.69-7.73,3.69-10.23a11,11,0,0,0-2.88-8c-3-3.07-6.91-3.31-9.16-3.31h-3.12Z" transform="translate(0 118.51)"/><path class="cls-6" d="M374.42,249.91a14,14,0,0,1-3.7,4.13,10.2,10.2,0,0,1-5.76,1.54,8.39,8.39,0,0,1-6.58-2.5,9.89,9.89,0,0,1-2.64-7.15,12,12,0,0,1,3.41-8.55,9.21,9.21,0,0,1,7-2.78,8.71,8.71,0,0,1,6.48,2.35c1.44,1.49,2.79,4.22,2.26,8.79H359.34a7,7,0,0,0,1.78,5.28,5.23,5.23,0,0,0,3.94,1.48,6.5,6.5,0,0,0,3.84-1.1,10.17,10.17,0,0,0,2.59-3.07Zm-2.88-7.06a6,6,0,0,0-1.68-3.93,5.13,5.13,0,0,0-3.65-1.25,5.75,5.75,0,0,0-4.37,1.68,7.59,7.59,0,0,0-1.92,3.5Z" transform="translate(0 118.51)"/><path class="cls-6" d="M389,239.69a3.18,3.18,0,0,0-.82-1.35,2.17,2.17,0,0,0-1.72-.67,2.79,2.79,0,0,0-1.92.62,2.34,2.34,0,0,0-.77,1.78,1.92,1.92,0,0,0,.57,1.39,7.22,7.22,0,0,0,2,1.16l1.83.91a11.59,11.59,0,0,1,2.54,1.77,5,5,0,0,1,1.3,3.56,6.79,6.79,0,0,1-1.68,4.6,7.59,7.59,0,0,1-5.72,2.12,6.08,6.08,0,0,1-4.17-1.3,7.33,7.33,0,0,1-2.35-3.79l3-1.25a6,6,0,0,0,1.2,2.35,3.22,3.22,0,0,0,2.4.91,3.9,3.9,0,0,0,2.69-.86,3.47,3.47,0,0,0,1-2.54,2.54,2.54,0,0,0-1.06-2.07,15.29,15.29,0,0,0-2.06-1.2l-1.11-.53a9,9,0,0,1-2.64-1.82,4.48,4.48,0,0,1-1.1-3.12,5.63,5.63,0,0,1,1.68-4.08,5.94,5.94,0,0,1,4.51-1.68,5.34,5.34,0,0,1,3.6,1.2,6.31,6.31,0,0,1,1.82,2.4Z" transform="translate(0 118.51)"/><path class="cls-6" d="M401.68,235.08,399.23,255h-3.46l2.45-19.92ZM399.09,226a2.61,2.61,0,0,1,2.06-.92,2.07,2.07,0,0,1,1.54.58,2.13,2.13,0,0,1,.62,1.58,2.58,2.58,0,0,1-.77,1.92,2.54,2.54,0,0,1-1.92.82,2.17,2.17,0,0,1-1.63-.67,2.09,2.09,0,0,1-.58-1.49A2.78,2.78,0,0,1,399.09,226Z" transform="translate(0 118.51)"/><path class="cls-6" d="M423.47,235.08h3.46l-2.35,19.44c-.39,3.12-.77,6.24-3.12,8.64-1.3,1.34-3.7,2.88-7.78,2.88-3.46,0-5.52-1.15-6.72-2.35a9.23,9.23,0,0,1-2.26-6.48v-.29h3.41v.19a5.7,5.7,0,0,0,1.58,4.47,5.93,5.93,0,0,0,4.13,1.39,6.84,6.84,0,0,0,5-1.78c1.78-1.73,2-4.27,2.21-6.09l.29-2.88a7.17,7.17,0,0,1-2.83,2.49,9,9,0,0,1-3.84.87,8.56,8.56,0,0,1-6.58-2.55,9.36,9.36,0,0,1-2.5-6.77,12.75,12.75,0,0,1,3.22-8.73,9.84,9.84,0,0,1,7.39-2.93,9.26,9.26,0,0,1,4.42,1,6.67,6.67,0,0,1,2.5,2.35Zm-11.66,4.42a8.76,8.76,0,0,0-2.6,6.52,6.87,6.87,0,0,0,1.78,4.9,5.56,5.56,0,0,0,4.08,1.58,7.2,7.2,0,0,0,4.9-1.72,9.49,9.49,0,0,0,2.54-6.63,7.34,7.34,0,0,0-1.73-4.8,5.46,5.46,0,0,0-4.17-1.68A6.74,6.74,0,0,0,411.81,239.5Z" transform="translate(0 118.51)"/><path class="cls-6" d="M433.45,235.08h3.46l-.29,2.3a8.85,8.85,0,0,1,2-1.87,6.87,6.87,0,0,1,3.69-.91,6.54,6.54,0,0,1,4.76,1.73,5.92,5.92,0,0,1,1.58,4.46,27.67,27.67,0,0,1-.29,3.31L447,255h-3.46l1.2-9.94c.1-.81.29-2.49.29-3.4a4.09,4.09,0,0,0-1-3,3.85,3.85,0,0,0-2.78-1,4.83,4.83,0,0,0-3.55,1.39c-1.35,1.4-1.73,3.75-2,5.52L434.46,255H431Z" transform="translate(0 118.51)"/><path class="cls-6" d="M483.66,226.34h-11l-1.15,9.46h10.66l-.39,3.36H471.09l-2,15.84h-3.56l3.94-32h14.59Z" transform="translate(0 118.51)"/><path class="cls-6" d="M486,252.84a9.87,9.87,0,0,1-2.54-7,11,11,0,0,1,3.6-8.31,11.2,11.2,0,0,1,8-3,9.83,9.83,0,0,1,7.29,2.73,8.83,8.83,0,0,1,2.45,6.53,11.67,11.67,0,0,1-3.36,8.64,11.31,11.31,0,0,1-8.3,3.08A9.15,9.15,0,0,1,486,252.84Zm3.55-13a8.54,8.54,0,0,0-2.54,6.24,6.35,6.35,0,0,0,1.73,4.51,6.09,6.09,0,0,0,4.61,1.87,7.16,7.16,0,0,0,5.42-2.3,9.47,9.47,0,0,0,2.4-6.29,6.33,6.33,0,0,0-1.63-4.41,6.22,6.22,0,0,0-4.56-1.83A7.68,7.68,0,0,0,489.56,239.88Z" transform="translate(0 118.51)"/><path class="cls-6" d="M526.33,240.65a10.43,10.43,0,0,0-2.49-2.12,7.94,7.94,0,0,0-3.6-.86,7.53,7.53,0,0,0-5.33,2.06,8.19,8.19,0,0,0-2.55,6.05,6.82,6.82,0,0,0,1.93,5,6.18,6.18,0,0,0,4.6,1.72,7.53,7.53,0,0,0,3.7-.86,9.14,9.14,0,0,0,2.78-2.26l-.48,4.13a9.43,9.43,0,0,1-2.88,1.54,11.5,11.5,0,0,1-3.55.53,9.25,9.25,0,0,1-7-2.64,9.81,9.81,0,0,1-2.64-7,11.94,11.94,0,0,1,3.46-8.36,11.15,11.15,0,0,1,8.06-3,11.46,11.46,0,0,1,6.48,1.92Z" transform="translate(0 118.51)"/><path class="cls-6" d="M534.54,245.59a21.76,21.76,0,0,0-.19,2.59,3.9,3.9,0,0,0,1.2,3.32,4.56,4.56,0,0,0,3,1,4.63,4.63,0,0,0,3.22-1.2c1.15-1.15,1.39-2.92,1.68-5.18l1.35-11h3.45l-1.39,11.42c-.34,2.64-.67,5.19-2.45,7a8,8,0,0,1-5.76,2.07,8.34,8.34,0,0,1-5.81-1.83,6.15,6.15,0,0,1-2-5c0-1,.2-2.54.29-3.41l1.25-10.22h3.46Z" transform="translate(0 118.51)"/><path class="cls-6" d="M562.28,239.69a3.18,3.18,0,0,0-.81-1.35,2.21,2.21,0,0,0-1.73-.67,2.81,2.81,0,0,0-1.92.62,2.34,2.34,0,0,0-.77,1.78,1.88,1.88,0,0,0,.58,1.39,7.22,7.22,0,0,0,2,1.16l1.82.91A11.36,11.36,0,0,1,564,245.3a5,5,0,0,1,1.3,3.56,6.74,6.74,0,0,1-1.68,4.6,7.57,7.57,0,0,1-5.71,2.12,6.12,6.12,0,0,1-4.18-1.3,7.39,7.39,0,0,1-2.35-3.79l3-1.25a6.26,6.26,0,0,0,1.2,2.35,3.23,3.23,0,0,0,2.4.91,3.88,3.88,0,0,0,2.69-.86,3.47,3.47,0,0,0,1-2.54A2.51,2.51,0,0,0,560.6,247a14.68,14.68,0,0,0-2.06-1.2l-1.1-.53a8.78,8.78,0,0,1-2.64-1.82,4.44,4.44,0,0,1-1.11-3.12,5.63,5.63,0,0,1,1.68-4.08,6,6,0,0,1,4.51-1.68,5.34,5.34,0,0,1,3.6,1.2,6.44,6.44,0,0,1,1.83,2.4Z" transform="translate(0 118.51)"/><path class="cls-6" d="M587.72,249.91A13.94,13.94,0,0,1,584,254a10.2,10.2,0,0,1-5.76,1.54,8.39,8.39,0,0,1-6.58-2.5,9.89,9.89,0,0,1-2.64-7.15,12,12,0,0,1,3.41-8.55,9.19,9.19,0,0,1,7-2.78A8.71,8.71,0,0,1,585.9,237c1.44,1.49,2.79,4.22,2.26,8.79H572.65a6.91,6.91,0,0,0,1.78,5.28,5.21,5.21,0,0,0,3.93,1.48,6.47,6.47,0,0,0,3.84-1.1,10.07,10.07,0,0,0,2.6-3.07Zm-2.88-7.06a5.86,5.86,0,0,0-1.68-3.93,5.09,5.09,0,0,0-3.64-1.25,5.75,5.75,0,0,0-4.37,1.68,7.42,7.42,0,0,0-1.92,3.5Z" transform="translate(0 118.51)"/><path class="cls-6" d="M612,220h3.46l-4.32,35h-3.46l.34-2.78a7.64,7.64,0,0,1-2.78,2.49,8.19,8.19,0,0,1-3.89.87,8.36,8.36,0,0,1-6.1-2.26,10,10,0,0,1-2.93-7.34,12.34,12.34,0,0,1,3.46-8.65,10.22,10.22,0,0,1,7.1-2.73,10.69,10.69,0,0,1,4.32,1,7.34,7.34,0,0,1,2.6,2.35Zm-13.63,19.45a8.41,8.41,0,0,0-2.5,6.19,7.18,7.18,0,0,0,1.88,5.09,5.66,5.66,0,0,0,4.41,1.77,6.35,6.35,0,0,0,4.71-1.72,9.4,9.4,0,0,0,2.3-6.29,7.49,7.49,0,0,0-1.82-5.09,5.61,5.61,0,0,0-4.32-1.73A6.54,6.54,0,0,0,598.33,239.45Z" transform="translate(0 118.51)"/><path class="cls-6" d="M647.77,226.34h-11l-1.15,9.46h10.66l-.39,3.36H635.19l-2,15.84h-3.56l3.94-32H648.2Z" transform="translate(0 118.51)"/><path class="cls-6" d="M652.67,245.59a21.74,21.74,0,0,0-.2,2.59,3.93,3.93,0,0,0,1.2,3.32,4.59,4.59,0,0,0,3,1,4.65,4.65,0,0,0,3.22-1.2c1.15-1.15,1.39-2.92,1.68-5.18l1.34-11h3.46L665,246.5c-.34,2.64-.68,5.19-2.45,7a8,8,0,0,1-5.76,2.07,8.32,8.32,0,0,1-5.81-1.83,6.12,6.12,0,0,1-2-5c0-1,.19-2.54.29-3.41l1.25-10.22H654Z" transform="translate(0 118.51)"/><path class="cls-6" d="M678.2,220l-4.32,35h-3.45l4.32-35Z" transform="translate(0 118.51)"/><path class="cls-6" d="M688.19,220l-4.32,35h-3.46l4.32-35Z" transform="translate(0 118.51)"/><path class="cls-6" d="M719.91,229.32a5.45,5.45,0,0,0-1.77-2.5,5.62,5.62,0,0,0-3.6-1,5.87,5.87,0,0,0-4,1.35,5.26,5.26,0,0,0-1.68,3.79,3.89,3.89,0,0,0,1.35,2.93,14.82,14.82,0,0,0,2.69,1.68l2.88,1.34a12.91,12.91,0,0,1,4.08,2.74,7.13,7.13,0,0,1,2.16,5.61,10.15,10.15,0,0,1-2.69,7.25,11,11,0,0,1-8.31,3.08c-2.59,0-4.7-.48-6.62-2.4a10.12,10.12,0,0,1-2.69-5.86l3.55-1a6.64,6.64,0,0,0,1.73,4.18,5.81,5.81,0,0,0,4.56,1.68,6.61,6.61,0,0,0,5-1.78,6.9,6.9,0,0,0,1.73-4.66,5.4,5.4,0,0,0-1.73-4.08,15.92,15.92,0,0,0-3.12-1.92l-2.54-1.2a13.3,13.3,0,0,1-3.79-2.45,6.84,6.84,0,0,1-1.83-4.94,8,8,0,0,1,2.5-6.05,9.54,9.54,0,0,1,7.06-2.69,9.74,9.74,0,0,1,5.28,1.35,7.78,7.78,0,0,1,2.88,3.65Z" transform="translate(0 118.51)"/><path class="cls-6" d="M732.06,238.25,730,255h-3.45l2.06-16.75h-2.11l.38-3.17H729l.87-7.2h3.45l-.86,7.2h3.46l-.39,3.17Z" transform="translate(0 118.51)"/><path class="cls-6" d="M754.52,235.08H758L755.53,255h-3.46l.34-2.78a7.55,7.55,0,0,1-6.63,3.36,8.27,8.27,0,0,1-6.48-2.45,10,10,0,0,1-2.59-7.11,12,12,0,0,1,3.46-8.83,9.76,9.76,0,0,1,7.15-2.59,8.66,8.66,0,0,1,4.22,1,6.65,6.65,0,0,1,2.65,2.35Zm-11.71,4.46a8.82,8.82,0,0,0-2.55,6.24,7.24,7.24,0,0,0,2.07,5.24,5.57,5.57,0,0,0,4,1.48,6.43,6.43,0,0,0,4.94-2,9.64,9.64,0,0,0,2.26-6.49,6.37,6.37,0,0,0-1.87-4.8,5.79,5.79,0,0,0-4.08-1.58A6.82,6.82,0,0,0,742.81,239.54Z" transform="translate(0 118.51)"/><path class="cls-6" d="M779.53,240.65a10.28,10.28,0,0,0-2.5-2.12,7.91,7.91,0,0,0-3.6-.86,7.55,7.55,0,0,0-5.33,2.06,8.22,8.22,0,0,0-2.54,6.05,6.86,6.86,0,0,0,1.92,5,6.2,6.2,0,0,0,4.61,1.72,7.52,7.52,0,0,0,3.69-.86,9.32,9.32,0,0,0,2.79-2.26l-.48,4.13a9.43,9.43,0,0,1-2.88,1.54,11.5,11.5,0,0,1-3.55.53,9.24,9.24,0,0,1-7-2.64,9.81,9.81,0,0,1-2.64-7,12,12,0,0,1,3.45-8.36,11.18,11.18,0,0,1,8.07-3,11.48,11.48,0,0,1,6.48,1.92Z" transform="translate(0 118.51)"/><path class="cls-6" d="M791,220l-2.78,22.47,8.21-7.39h4.51l-9.7,8.54L799.88,255h-4.42l-6.86-9.07-1,.86-1,8.21h-3.46l4.33-35Z" transform="translate(0 118.51)"/><path class="cls-6" d="M835.59,226.34H822.53l-1.15,9.51h12.68l-.44,3.36H821l-1.49,12.43h13.06l-.43,3.36H815.48l3.93-32H836Z" transform="translate(0 118.51)"/><path class="cls-6" d="M840.2,235.08h3.45l-.28,2.3a8.71,8.71,0,0,1,2-1.87,6.88,6.88,0,0,1,3.7-.91,6.52,6.52,0,0,1,4.75,1.73,5.93,5.93,0,0,1,1.59,4.46,29.91,29.91,0,0,1-.29,3.31L853.78,255h-3.45l1.2-9.94c.09-.81.28-2.49.28-3.4a4.08,4.08,0,0,0-1-3,3.9,3.9,0,0,0-2.79-1,4.86,4.86,0,0,0-3.55,1.39c-1.34,1.4-1.73,3.75-2,5.52L841.21,255h-3.46Z" transform="translate(0 118.51)"/><path class="cls-6" d="M878,235.08h3.46l-2.35,19.44c-.38,3.12-.77,6.24-3.12,8.64-1.3,1.34-3.7,2.88-7.78,2.88-3.45,0-5.52-1.15-6.72-2.35a9.21,9.21,0,0,1-2.25-6.48v-.29h3.4v.19a5.71,5.71,0,0,0,1.59,4.47,5.91,5.91,0,0,0,4.13,1.39,6.88,6.88,0,0,0,5-1.78c1.77-1.73,2-4.27,2.2-6.09l.29-2.88a7.1,7.1,0,0,1-2.83,2.49,9,9,0,0,1-3.84.87,8.59,8.59,0,0,1-6.58-2.55,9.34,9.34,0,0,1-2.49-6.77,12.74,12.74,0,0,1,3.21-8.73,9.87,9.87,0,0,1,7.4-2.93,9.22,9.22,0,0,1,4.41,1,6.67,6.67,0,0,1,2.5,2.35Zm-11.66,4.42a8.79,8.79,0,0,0-2.59,6.52,6.91,6.91,0,0,0,1.77,4.9,5.59,5.59,0,0,0,4.08,1.58,7.2,7.2,0,0,0,4.9-1.72,9.49,9.49,0,0,0,2.54-6.63,7.38,7.38,0,0,0-1.72-4.8,5.48,5.48,0,0,0-4.18-1.68A6.74,6.74,0,0,0,866.31,239.5Z" transform="translate(0 118.51)"/><path class="cls-6" d="M891.41,235.08,889,255h-3.45L888,235.08ZM888.82,226a2.63,2.63,0,0,1,2.06-.92,2,2,0,0,1,1.54.58,2.13,2.13,0,0,1,.62,1.58,2.62,2.62,0,0,1-.76,1.92,2.56,2.56,0,0,1-1.92.82,2.2,2.2,0,0,1-1.64-.67,2.09,2.09,0,0,1-.57-1.49A2.82,2.82,0,0,1,888.82,226Z" transform="translate(0 118.51)"/><path class="cls-6" d="M897.94,235.08h3.46l-.29,2.3a8.71,8.71,0,0,1,2-1.87,6.9,6.9,0,0,1,3.7-.91,6.52,6.52,0,0,1,4.75,1.73,5.89,5.89,0,0,1,1.59,4.46,29.91,29.91,0,0,1-.29,3.31L911.53,255h-3.46l1.2-9.94c.1-.81.29-2.49.29-3.4a4.09,4.09,0,0,0-1-3,3.9,3.9,0,0,0-2.79-1,4.86,4.86,0,0,0-3.55,1.39c-1.34,1.4-1.73,3.75-2,5.52L899,255h-3.46Z" transform="translate(0 118.51)"/><path class="cls-6" d="M936.63,249.91a13.83,13.83,0,0,1-3.7,4.13,10.2,10.2,0,0,1-5.76,1.54,8.36,8.36,0,0,1-6.57-2.5,9.89,9.89,0,0,1-2.64-7.15,12,12,0,0,1,3.4-8.55,9.21,9.21,0,0,1,7-2.78A8.71,8.71,0,0,1,934.8,237c1.45,1.49,2.79,4.22,2.26,8.79h-15.5a7,7,0,0,0,1.77,5.28,5.23,5.23,0,0,0,3.94,1.48,6.5,6.5,0,0,0,3.84-1.1,10,10,0,0,0,2.59-3.07Zm-2.88-7.06a5.9,5.9,0,0,0-1.68-3.93,5.13,5.13,0,0,0-3.65-1.25,5.75,5.75,0,0,0-4.37,1.68,7.59,7.59,0,0,0-1.92,3.5Z" transform="translate(0 118.51)"/><path class="cls-6" d="M959.81,249.91a13.94,13.94,0,0,1-3.69,4.13,10.2,10.2,0,0,1-5.76,1.54,8.38,8.38,0,0,1-6.58-2.5,9.89,9.89,0,0,1-2.64-7.15,12,12,0,0,1,3.41-8.55,9.19,9.19,0,0,1,7-2.78A8.71,8.71,0,0,1,958,237c1.44,1.49,2.78,4.22,2.26,8.79H944.74a6.91,6.91,0,0,0,1.78,5.28,5.21,5.21,0,0,0,3.93,1.48,6.49,6.49,0,0,0,3.84-1.1,9.9,9.9,0,0,0,2.59-3.07Zm-2.88-7.06a5.9,5.9,0,0,0-1.68-3.93,5.1,5.1,0,0,0-3.65-1.25,5.74,5.74,0,0,0-4.36,1.68,7.42,7.42,0,0,0-1.92,3.5Z" transform="translate(0 118.51)"/><path class="cls-6" d="M966.82,235.08h3.46l-.29,2.16a5.49,5.49,0,0,1,2-1.92,5.58,5.58,0,0,1,2.88-.72,5.19,5.19,0,0,1,2.93.81l-2,3.12a3.31,3.31,0,0,0-2.07-.67,3.58,3.58,0,0,0-2.64,1.06c-1.39,1.34-1.73,3.6-2,5.57L967.83,255h-3.46Z" transform="translate(0 118.51)"/></g></g><g id="Group_1" data-name="Group 1"><path id="linkedin-in-brands" class="cls-7" d="M1171.06,353h-7.46V329h7.46Zm-3.74-27.31a4.35,4.35,0,1,1,4.33-4.37A4.34,4.34,0,0,1,1167.32,325.69ZM1199,353h-7.45V341.3c0-2.79,0-6.36-3.88-6.36s-4.47,3-4.47,6.16V353h-7.46V329h7.16v3.27h.11a7.87,7.87,0,0,1,7.06-3.88c7.56,0,8.94,5,8.94,11.44V353Z" transform="translate(0 118.51)"/><g id="_in_murphyb2_" data-name=" in murphyb2 " class="cls-5"><g class="cls-5"><path class="cls-7" d="M1252.16,323.75l1.68.84-17.66,26-1.71-.78Z" transform="translate(0 118.51)"/><path class="cls-7" d="M1257.29,333.38,1255.86,345h-2l1.43-11.62Zm-1.51-5.29a1.51,1.51,0,0,1,1.2-.53,1.22,1.22,0,0,1,.9.33,1.25,1.25,0,0,1,.36.93,1.56,1.56,0,0,1-.45,1.12,1.49,1.49,0,0,1-1.12.47,1.27,1.27,0,0,1-1-.39,1.22,1.22,0,0,1-.34-.87A1.6,1.6,0,0,1,1255.78,328.09Z" transform="translate(0 118.51)"/><path class="cls-7" d="M1261.1,333.38h2l-.17,1.34a5.21,5.21,0,0,1,1.18-1.09,4,4,0,0,1,2.16-.53,3.8,3.8,0,0,1,2.77,1,3.45,3.45,0,0,1,.92,2.6,15.62,15.62,0,0,1-.17,1.93L1269,345h-2l.7-5.8c.06-.47.17-1.45.17-2a2.35,2.35,0,0,0-.59-1.74,2.23,2.23,0,0,0-1.62-.59,2.83,2.83,0,0,0-2.07.81,5.84,5.84,0,0,0-1.15,3.22l-.76,6.08h-2Z" transform="translate(0 118.51)"/><path class="cls-7" d="M1288.06,323.75l1.68.84-17.67,26-1.71-.78Z" transform="translate(0 118.51)"/><path class="cls-7" d="M1291.17,333.38h2l-.14,1.23a3.18,3.18,0,0,1,1.12-1.06,3.47,3.47,0,0,1,1.8-.45,3.69,3.69,0,0,1,1.93.48,3.24,3.24,0,0,1,1.17,1.4,3.82,3.82,0,0,1,1.23-1.32,4.07,4.07,0,0,1,2.19-.56,3.76,3.76,0,0,1,2.72,1,3.14,3.14,0,0,1,.92,2.38c0,.62-.11,1.32-.22,2.32l-.76,6.22h-2l.79-6.22a14.6,14.6,0,0,0,.17-1.73,2.27,2.27,0,0,0-.56-1.6,2,2,0,0,0-1.46-.56,2.54,2.54,0,0,0-1.74.67,4.7,4.7,0,0,0-1.09,3l-.78,6.47h-2l.84-6.89a3.05,3.05,0,0,0-.48-2.66,1.89,1.89,0,0,0-1.48-.56,2.3,2.3,0,0,0-1.65.67,5.17,5.17,0,0,0-1.12,3.11l-.78,6.33h-2Z" transform="translate(0 118.51)"/><path class="cls-7" d="M1311.55,339.51a14.69,14.69,0,0,0-.11,1.51,2.28,2.28,0,0,0,.7,1.94,2.87,2.87,0,0,0,3.61-.12c.67-.67.81-1.7,1-3l.79-6.44h2l-.81,6.66c-.2,1.54-.39,3-1.43,4.09a4.63,4.63,0,0,1-3.36,1.21,4.87,4.87,0,0,1-3.39-1.07,3.58,3.58,0,0,1-1.14-2.94c0-.56.11-1.48.16-2l.73-6h2Z" transform="translate(0 118.51)"/><path class="cls-7" d="M1323.34,333.38h2l-.17,1.26a3.33,3.33,0,0,1,1.17-1.12,3.25,3.25,0,0,1,1.68-.42,3,3,0,0,1,1.71.48l-1.18,1.82a1.84,1.84,0,0,0-1.2-.4,2.09,2.09,0,0,0-1.54.62,5.38,5.38,0,0,0-1.15,3.25l-.75,6.13h-2Z" transform="translate(0 118.51)"/><path class="cls-7" d="M1331.4,351.44h-2l2.24-18.06h2l-.19,1.62a4.77,4.77,0,0,1,4-1.9,5.08,5.08,0,0,1,3.64,1.34,5.28,5.28,0,0,1,1.51,4,7.54,7.54,0,0,1-2,5.37,5.52,5.52,0,0,1-4.17,1.52,4.94,4.94,0,0,1-2.66-.65,4.58,4.58,0,0,1-1.32-1.31Zm7.56-8.88a5.45,5.45,0,0,0,1.57-4,3.75,3.75,0,0,0-1-2.72,3.37,3.37,0,0,0-2.57-1,3.72,3.72,0,0,0-2.89,1.23,5.17,5.17,0,0,0-1.28,3.53,4,4,0,0,0,1,2.77,3.29,3.29,0,0,0,2.6,1.12A3.67,3.67,0,0,0,1339,342.56Z" transform="translate(0 118.51)"/><path class="cls-7" d="M1347.5,324.59h2l-1.26,10.13a5.07,5.07,0,0,1,1.17-1.09,4,4,0,0,1,2.13-.53,3.91,3.91,0,0,1,2.8,1,3.42,3.42,0,0,1,.93,2.6,17.84,17.84,0,0,1-.17,1.93l-.79,6.36h-2l.7-5.8c0-.47.17-1.45.17-2a2.39,2.39,0,0,0-.59-1.74,2.27,2.27,0,0,0-1.63-.59,2.85,2.85,0,0,0-2.07.81,5.91,5.91,0,0,0-1.15,3.22L1347,345h-2Z" transform="translate(0 118.51)"/><path class="cls-7" d="M1361.92,343.91l-4.06-10.53h2.24l3.08,8.32,4.82-8.32h2.29l-10.75,18.06h-2.24Z" transform="translate(0 118.51)"/><path class="cls-7" d="M1373,345h-2l2.52-20.41h2L1374.24,335a5,5,0,0,1,1.51-1.34,4.57,4.57,0,0,1,2.33-.56,5.27,5.27,0,0,1,3.81,1.37,5.52,5.52,0,0,1,1.51,3.95,7.35,7.35,0,0,1-2,5.29,5.6,5.6,0,0,1-4.2,1.63,5.06,5.06,0,0,1-2.57-.62,4.25,4.25,0,0,1-1.4-1.4Zm6.83-2.49a5.51,5.51,0,0,0,1.49-3.75,4,4,0,0,0-1.07-2.83,3.43,3.43,0,0,0-2.52-1A3.85,3.85,0,0,0,1375,336a5,5,0,0,0-1.46,3.53,4.2,4.2,0,0,0,1.18,3,3.37,3.37,0,0,0,2.49,1A3.77,3.77,0,0,0,1379.84,342.51Z" transform="translate(0 118.51)"/><path class="cls-7" d="M1385.27,345l7.79-7.81a35.2,35.2,0,0,0,2.8-3.05,5,5,0,0,0,1.12-3.06,3,3,0,0,0-.93-2.29,3.5,3.5,0,0,0-2.49-.87,3.7,3.7,0,0,0-2.8,1,4.75,4.75,0,0,0-1.17,2.82h-2.08a7.25,7.25,0,0,1,1.94-4.14,6,6,0,0,1,4.28-1.62,5.66,5.66,0,0,1,3.89,1.4,4.55,4.55,0,0,1,1.43,3.44,6.83,6.83,0,0,1-1.68,4.45,39.57,39.57,0,0,1-3.25,3.39l-4.45,4.4h7.9l-.23,1.9Z" transform="translate(0 118.51)"/><path class="cls-7" d="M1416.94,323.75l1.68.84-17.67,26-1.7-.78Z" transform="translate(0 118.51)"/></g></g></g><g id="Group_3" data-name="Group 3"><path id="bold-solid" class="cls-7" d="M1191.35,249.55a9.71,9.71,0,0,0,2.17-5.24,10.29,10.29,0,0,0-9.22-11.26c-.33,0-.66-.05-1-.05h-16a1.29,1.29,0,0,0-1.29,1.29v3.85a1.29,1.29,0,0,0,1.29,1.29h2.56v23.14h-2.56a1.29,1.29,0,0,0-1.29,1.29v3.85a1.29,1.29,0,0,0,1.29,1.29h16.82a11.25,11.25,0,0,0,11.33-9.84A10.9,10.9,0,0,0,1191.35,249.55Zm-15.09-10.12h7a3.86,3.86,0,1,1,0,7.71h-7Zm7,23.14h-7v-9h7a4.5,4.5,0,0,1,0,9Z" transform="translate(0 118.51)"/><g id="bryan-murphy-dev.com" class="cls-5"><g class="cls-5"><path class="cls-7" d="M1237.92,261h-2l2.52-20.41h2L1239.15,251a5,5,0,0,1,1.51-1.34,4.57,4.57,0,0,1,2.33-.56,5.27,5.27,0,0,1,3.81,1.37,5.52,5.52,0,0,1,1.51,3.95,7.35,7.35,0,0,1-2,5.29,5.6,5.6,0,0,1-4.2,1.63,5.06,5.06,0,0,1-2.57-.62,4.15,4.15,0,0,1-1.4-1.4Zm6.83-2.49a5.51,5.51,0,0,0,1.49-3.75,4,4,0,0,0-1.07-2.83,3.43,3.43,0,0,0-2.52-1,3.85,3.85,0,0,0-2.74,1.12,5,5,0,0,0-1.46,3.53,4.2,4.2,0,0,0,1.18,3,3.37,3.37,0,0,0,2.49,1A3.77,3.77,0,0,0,1244.75,258.51Z" transform="translate(0 118.51)"/><path class="cls-7" d="M1252.12,249.38h2l-.17,1.26a3.37,3.37,0,0,1,1.18-1.12,3.23,3.23,0,0,1,1.68-.42,3,3,0,0,1,1.71.48l-1.18,1.82a1.87,1.87,0,0,0-1.2-.4,2.09,2.09,0,0,0-1.54.62,5.38,5.38,0,0,0-1.15,3.25l-.76,6.13h-2Z" transform="translate(0 118.51)"/><path class="cls-7" d="M1263.65,259.91l-4.06-10.53h2.24l3.08,8.32,4.82-8.32H1272l-10.75,18.06H1259Z" transform="translate(0 118.51)"/><path class="cls-7" d="M1283.11,249.38h2L1283.7,261h-2l.2-1.62a4.41,4.41,0,0,1-3.86,2,4.81,4.81,0,0,1-3.78-1.43,5.8,5.8,0,0,1-1.52-4.15,7,7,0,0,1,2-5.15,5.74,5.74,0,0,1,4.17-1.51,5.07,5.07,0,0,1,2.47.56,3.9,3.9,0,0,1,1.54,1.37Zm-6.83,2.6a5.18,5.18,0,0,0-1.49,3.64,4.22,4.22,0,0,0,1.21,3.06,3.25,3.25,0,0,0,2.35.86,3.8,3.8,0,0,0,2.89-1.14,5.65,5.65,0,0,0,1.31-3.78,3.69,3.69,0,0,0-1.09-2.8,3.35,3.35,0,0,0-2.38-.93A4,4,0,0,0,1276.28,252Z" transform="translate(0 118.51)"/><path class="cls-7" d="M1288.94,249.38h2l-.17,1.34a5.21,5.21,0,0,1,1.18-1.09,4,4,0,0,1,2.16-.53,3.8,3.8,0,0,1,2.77,1,3.45,3.45,0,0,1,.92,2.6,15.62,15.62,0,0,1-.17,1.93l-.78,6.36h-2l.7-5.8c.06-.47.17-1.45.17-2a2.39,2.39,0,0,0-.59-1.74,2.23,2.23,0,0,0-1.62-.59,2.83,2.83,0,0,0-2.07.81,5.84,5.84,0,0,0-1.15,3.22l-.76,6.08h-2Z" transform="translate(0 118.51)"/><path class="cls-7" d="M1301,254h6.16l-.25,2.07h-6.16Z" transform="translate(0 118.51)"/><path class="cls-7" d="M1311,249.38h2l-.14,1.23a3.18,3.18,0,0,1,1.12-1.06,3.45,3.45,0,0,1,1.79-.45,3.73,3.73,0,0,1,1.94.48,3.24,3.24,0,0,1,1.17,1.4,3.82,3.82,0,0,1,1.23-1.32,4.07,4.07,0,0,1,2.19-.56,3.73,3.73,0,0,1,2.71,1,3.11,3.11,0,0,1,.93,2.38,21.78,21.78,0,0,1-.23,2.32L1325,261h-2l.79-6.22a14.45,14.45,0,0,0,.16-1.73,2.25,2.25,0,0,0-.55-1.6,2,2,0,0,0-1.46-.56,2.54,2.54,0,0,0-1.74.67,4.7,4.7,0,0,0-1.09,3l-.78,6.47h-2l.84-6.89a3.05,3.05,0,0,0-.48-2.66,1.89,1.89,0,0,0-1.48-.56,2.3,2.3,0,0,0-1.65.67,5.17,5.17,0,0,0-1.12,3.11l-.78,6.33h-2Z" transform="translate(0 118.51)"/><path class="cls-7" d="M1331.41,255.51a12.33,12.33,0,0,0-.11,1.51,2.28,2.28,0,0,0,.7,1.94,2.87,2.87,0,0,0,3.61-.12c.67-.67.81-1.7,1-3l.79-6.44h2l-.81,6.66c-.2,1.54-.39,3-1.43,4.09a4.63,4.63,0,0,1-3.36,1.21,4.87,4.87,0,0,1-3.39-1.07,3.59,3.59,0,0,1-1.15-2.94c0-.56.12-1.48.17-2l.73-6h2Z" transform="translate(0 118.51)"/><path class="cls-7" d="M1343.2,249.38h2l-.16,1.26a3.27,3.27,0,0,1,2.85-1.54,3,3,0,0,1,1.71.48l-1.18,1.82a1.84,1.84,0,0,0-1.2-.4,2.09,2.09,0,0,0-1.54.62,5.38,5.38,0,0,0-1.15,3.25l-.75,6.13h-2Z" transform="translate(0 118.51)"/><path class="cls-7" d="M1351.26,267.44h-2l2.24-18.06h2l-.19,1.62a4.81,4.81,0,0,1,1.62-1.37,4.76,4.76,0,0,1,2.38-.53,5.1,5.1,0,0,1,3.64,1.34,5.28,5.28,0,0,1,1.51,4,7.54,7.54,0,0,1-2,5.37,5.52,5.52,0,0,1-4.17,1.52,4.94,4.94,0,0,1-2.66-.65,4.46,4.46,0,0,1-1.32-1.31Zm7.56-8.88a5.45,5.45,0,0,0,1.57-4,3.75,3.75,0,0,0-1-2.72,3.37,3.37,0,0,0-2.57-1,3.72,3.72,0,0,0-2.89,1.23,5.18,5.18,0,0,0-1.29,3.53,4,4,0,0,0,1,2.77,3.28,3.28,0,0,0,2.6,1.12A3.67,3.67,0,0,0,1358.82,258.56Z" transform="translate(0 118.51)"/><path class="cls-7" d="M1367.36,240.59h2l-1.26,10.13a5.07,5.07,0,0,1,1.17-1.09,4,4,0,0,1,2.13-.53,3.91,3.91,0,0,1,2.8,1,3.42,3.42,0,0,1,.93,2.6,17.84,17.84,0,0,1-.17,1.93l-.79,6.36h-2l.7-5.8c0-.47.17-1.45.17-2a2.39,2.39,0,0,0-.59-1.74,2.27,2.27,0,0,0-1.63-.59,2.85,2.85,0,0,0-2.07.81,5.91,5.91,0,0,0-1.15,3.22l-.75,6.08h-2Z" transform="translate(0 118.51)"/><path class="cls-7" d="M1381.78,259.91l-4.06-10.53H1380l3.08,8.32,4.82-8.32h2.29l-10.75,18.06h-2.24Z" transform="translate(0 118.51)"/><path class="cls-7" d="M1391.22,254h6.16l-.26,2.07H1391Z" transform="translate(0 118.51)"/><path class="cls-7" d="M1411.29,240.59h2L1410.79,261h-2l.2-1.62a4.5,4.5,0,0,1-1.62,1.45,4.76,4.76,0,0,1-2.27.51,4.88,4.88,0,0,1-3.56-1.32,5.85,5.85,0,0,1-1.71-4.28,7.17,7.17,0,0,1,2-5,5.92,5.92,0,0,1,4.14-1.6,6.35,6.35,0,0,1,2.52.56A4.34,4.34,0,0,1,1410,251Zm-8,11.34a4.93,4.93,0,0,0-1.45,3.61,4.18,4.18,0,0,0,1.09,3,3.3,3.3,0,0,0,2.57,1,3.7,3.7,0,0,0,2.75-1,5.49,5.49,0,0,0,1.34-3.67,4.38,4.38,0,0,0-1.06-3,3.27,3.27,0,0,0-2.52-1A3.81,3.81,0,0,0,1403.34,251.93Z" transform="translate(0 118.51)"/><path class="cls-7" d="M1425.46,258a8,8,0,0,1-2.16,2.41,5.89,5.89,0,0,1-3.35.9,4.89,4.89,0,0,1-3.84-1.46,5.77,5.77,0,0,1-1.54-4.17,7,7,0,0,1,2-5,5.36,5.36,0,0,1,4.06-1.62,5.1,5.1,0,0,1,3.78,1.37c.84.87,1.62,2.47,1.31,5.13h-9a4,4,0,0,0,1,3.08,3,3,0,0,0,2.29.86,3.78,3.78,0,0,0,2.24-.64,5.75,5.75,0,0,0,1.51-1.79Zm-1.68-4.11a3.45,3.45,0,0,0-1-2.3,3,3,0,0,0-2.13-.73,3.38,3.38,0,0,0-2.55,1,4.38,4.38,0,0,0-1.11,2Z" transform="translate(0 118.51)"/><path class="cls-7" d="M1430.05,249.38l2.52,7.84,4.43-7.84h2.29l-7.22,12.38-4.2-12.38Z" transform="translate(0 118.51)"/><path class="cls-7" d="M1438.43,258.93a1.46,1.46,0,0,1,1.09-.45,1.27,1.27,0,0,1,.92.36,1.32,1.32,0,0,1,.36,1,1.46,1.46,0,0,1-.53,1.12,1.54,1.54,0,0,1-1,.36,1.37,1.37,0,0,1-1-.36,1.27,1.27,0,0,1-.33-.9A1.52,1.52,0,0,1,1438.43,258.93Z" transform="translate(0 118.51)"/><path class="cls-7" d="M1454.58,252.63a5.9,5.9,0,0,0-1.46-1.23,4.48,4.48,0,0,0-2.09-.51,4.37,4.37,0,0,0-3.11,1.21,4.73,4.73,0,0,0-1.49,3.52,4,4,0,0,0,1.12,2.92,3.63,3.63,0,0,0,2.69,1,4.43,4.43,0,0,0,2.16-.5,5.39,5.39,0,0,0,1.62-1.32l-.28,2.41a5.52,5.52,0,0,1-1.68.9,6.75,6.75,0,0,1-2.07.31,5.4,5.4,0,0,1-4.09-1.54,5.73,5.73,0,0,1-1.54-4.06,7,7,0,0,1,2-4.88,6.51,6.51,0,0,1,4.7-1.76,6.68,6.68,0,0,1,3.78,1.12Z" transform="translate(0 118.51)"/><path class="cls-7" d="M1458.17,259.74a5.72,5.72,0,0,1-1.49-4.06,6.39,6.39,0,0,1,2.1-4.84,6.51,6.51,0,0,1,4.65-1.74,5.76,5.76,0,0,1,4.26,1.6,5.14,5.14,0,0,1,1.42,3.8,6.8,6.8,0,0,1-2,5,6.59,6.59,0,0,1-4.84,1.8A5.33,5.33,0,0,1,1458.17,259.74Zm2.07-7.56a5,5,0,0,0-1.49,3.64,3.69,3.69,0,0,0,1,2.63,3.55,3.55,0,0,0,2.69,1.09,4.15,4.15,0,0,0,3.16-1.34,5.5,5.5,0,0,0,1.4-3.67,3.71,3.71,0,0,0-1-2.57,3.62,3.62,0,0,0-2.66-1.07A4.47,4.47,0,0,0,1460.24,252.18Z" transform="translate(0 118.51)"/><path class="cls-7" d="M1472.92,249.38h2l-.14,1.23a3.1,3.1,0,0,1,1.12-1.06,3.41,3.41,0,0,1,1.79-.45,3.69,3.69,0,0,1,1.93.48,3.33,3.33,0,0,1,1.18,1.4,3.65,3.65,0,0,1,1.23-1.32,4,4,0,0,1,2.18-.56,3.75,3.75,0,0,1,2.72,1,3.1,3.1,0,0,1,.92,2.38c0,.62-.11,1.32-.22,2.32l-.76,6.22h-2l.78-6.22a14.6,14.6,0,0,0,.17-1.73,2.27,2.27,0,0,0-.56-1.6,2,2,0,0,0-1.46-.56,2.53,2.53,0,0,0-1.73.67,4.65,4.65,0,0,0-1.1,3l-.78,6.47h-2l.84-6.89a3.05,3.05,0,0,0-.48-2.66,1.93,1.93,0,0,0-1.49-.56,2.3,2.3,0,0,0-1.65.67,5.17,5.17,0,0,0-1.12,3.11l-.78,6.33h-2Z" transform="translate(0 118.51)"/></g></g></g><g id="Group_2" data-name="Group 2"><path id="instagram-brands" class="cls-7" d="M1181,410.77a9.23,9.23,0,1,0,9.23,9.24h0a9.22,9.22,0,0,0-9.2-9.23Zm0,15.24a6,6,0,1,1,6-6A6,6,0,0,1,1181,426Zm11.76-15.62a2.15,2.15,0,1,1-2.15-2.15,2.15,2.15,0,0,1,2.15,2.15Zm6.11,2.18c-.13-2.88-.8-5.43-2.9-7.54s-4.66-2.76-7.55-2.9-11.87-.17-14.85,0A10.72,10.72,0,0,0,1166,405c-2.11,2.1-2.76,4.66-2.9,7.54s-.17,11.88,0,14.85.8,5.44,2.9,7.54,4.66,2.77,7.54,2.91,11.88.17,14.85,0,5.44-.8,7.55-2.9,2.76-4.66,2.9-7.55S1199,415.55,1198.87,412.57Zm-3.84,18a6,6,0,0,1-3.42,3.42c-2.37.94-8,.73-10.61.73s-8.24.21-10.6-.73a6,6,0,0,1-3.43-3.42c-.94-2.37-.72-8-.72-10.61s-.21-8.25.72-10.61a6.06,6.06,0,0,1,3.42-3.42c2.37-.94,8-.73,10.61-.73s8.25-.21,10.61.73a6,6,0,0,1,3.42,3.42c.94,2.37.73,8,.73,10.61S1196,428.25,1195,430.61Z" transform="translate(0 118.51)"/><g id="_thecrimsonnchin" data-name=" thecrimsonnchin" class="cls-5"><g class="cls-5"><path class="cls-7" d="M1249.54,416.25H1251l-1.85,5.88a7.3,7.3,0,0,0-.34,1.54.94.94,0,0,0,.28.81.88.88,0,0,0,.67.26,3,3,0,0,0,1.88-.82,7.45,7.45,0,0,0,1.93-5.2,6,6,0,0,0-2-4.68,7.18,7.18,0,0,0-4.78-1.62,9,9,0,0,0-6.64,2.71,9.61,9.61,0,0,0-2.66,6.69,7.46,7.46,0,0,0,1.88,5.07,8.32,8.32,0,0,0,6,2.13,13.31,13.31,0,0,0,5.74-1.29l.25,1.29a14.32,14.32,0,0,1-6.47,1.34,8.55,8.55,0,0,1-6.58-2.54,7.88,7.88,0,0,1-2.24-5.77,11.25,11.25,0,0,1,3-7.73,10.61,10.61,0,0,1,7.81-3.25,8.19,8.19,0,0,1,6,2.24,6.94,6.94,0,0,1,2.05,5.07c0,1.65-.54,4.59-2.24,6.27a4.37,4.37,0,0,1-2.92,1.32,2.05,2.05,0,0,1-1.51-.56,1.69,1.69,0,0,1-.59-1.32,4.36,4.36,0,0,1-1.37,1.37,3.92,3.92,0,0,1-2.18.62,3.44,3.44,0,0,1-2.55-1,4.05,4.05,0,0,1-1.06-3,7,7,0,0,1,1.93-4.73,4.82,4.82,0,0,1,3.53-1.51,2.81,2.81,0,0,1,3,2.15Zm-2.88,7.37a5.74,5.74,0,0,0,1.54-3.81,2.45,2.45,0,0,0-.68-1.82,2.25,2.25,0,0,0-1.54-.59,3.51,3.51,0,0,0-2.52,1.12,5.39,5.39,0,0,0-1.31,3.44,2.73,2.73,0,0,0,.78,2.1,2.12,2.12,0,0,0,1.49.51A3.06,3.06,0,0,0,1246.66,423.62Z" transform="translate(0 118.51)"/><path class="cls-7" d="M1259.82,420.23l-1.21,9.77h-2l1.2-9.77h-1.23l.22-1.85H1258l.51-4.2h2l-.5,4.2h2l-.23,1.85Z" transform="translate(0 118.51)"/><path class="cls-7" d="M1265.05,409.59h2l-1.26,10.13a5.07,5.07,0,0,1,1.17-1.09,4,4,0,0,1,2.13-.53,3.91,3.91,0,0,1,2.8,1,3.42,3.42,0,0,1,.93,2.6,17.84,17.84,0,0,1-.17,1.93l-.79,6.36h-2l.7-5.8c0-.47.17-1.45.17-2a2.39,2.39,0,0,0-.59-1.74,2.27,2.27,0,0,0-1.63-.59,2.85,2.85,0,0,0-2.07.81,5.91,5.91,0,0,0-1.15,3.22l-.75,6.08h-2Z" transform="translate(0 118.51)"/><path class="cls-7" d="M1286.25,427a8.14,8.14,0,0,1-2.16,2.41,5.94,5.94,0,0,1-3.36.9,4.87,4.87,0,0,1-3.83-1.46,5.77,5.77,0,0,1-1.54-4.17,7,7,0,0,1,2-5,5.38,5.38,0,0,1,4.06-1.62,5.08,5.08,0,0,1,3.78,1.37c.84.87,1.63,2.47,1.32,5.13h-9a4.06,4.06,0,0,0,1,3.08,3.05,3.05,0,0,0,2.3.86,3.8,3.8,0,0,0,2.24-.64,5.89,5.89,0,0,0,1.51-1.79Zm-1.68-4.11a3.45,3.45,0,0,0-1-2.3,3,3,0,0,0-2.13-.73,3.35,3.35,0,0,0-2.55,1,4.49,4.49,0,0,0-1.12,2.05Z" transform="translate(0 118.51)"/><path class="cls-7" d="M1299.1,421.63a5.9,5.9,0,0,0-1.46-1.23,4.53,4.53,0,0,0-2.1-.51,4.36,4.36,0,0,0-3.1,1.21,4.73,4.73,0,0,0-1.49,3.52,4,4,0,0,0,1.12,2.92,3.63,3.63,0,0,0,2.69,1,4.46,4.46,0,0,0,2.16-.5,5.39,5.39,0,0,0,1.62-1.32l-.28,2.41a5.52,5.52,0,0,1-1.68.9,6.75,6.75,0,0,1-2.07.31,5.39,5.39,0,0,1-4.09-1.54,5.73,5.73,0,0,1-1.54-4.06,7,7,0,0,1,2-4.88,6.49,6.49,0,0,1,4.7-1.76,6.68,6.68,0,0,1,3.78,1.12Z" transform="translate(0 118.51)"/><path class="cls-7" d="M1302.65,418.38h2l-.17,1.26a3.37,3.37,0,0,1,1.18-1.12,3.23,3.23,0,0,1,1.68-.42,3,3,0,0,1,1.71.48l-1.18,1.82a1.87,1.87,0,0,0-1.2-.4,2.07,2.07,0,0,0-1.54.62,5.32,5.32,0,0,0-1.15,3.25l-.76,6.13h-2Z" transform="translate(0 118.51)"/><path class="cls-7" d="M1313,418.38,1311.53,430h-2l1.43-11.62Zm-1.51-5.29a1.51,1.51,0,0,1,1.2-.53,1.22,1.22,0,0,1,.9.33,1.25,1.25,0,0,1,.36.93,1.56,1.56,0,0,1-.45,1.12,1.49,1.49,0,0,1-1.12.47,1.27,1.27,0,0,1-.95-.39,1.22,1.22,0,0,1-.34-.87A1.6,1.6,0,0,1,1311.45,413.09Z" transform="translate(0 118.51)"/><path class="cls-7" d="M1316.77,418.38h2l-.14,1.23a3.18,3.18,0,0,1,1.12-1.06,3.45,3.45,0,0,1,1.79-.45,3.7,3.7,0,0,1,1.94.48,3.24,3.24,0,0,1,1.17,1.4,3.82,3.82,0,0,1,1.23-1.32,4.07,4.07,0,0,1,2.19-.56,3.73,3.73,0,0,1,2.71,1,3.11,3.11,0,0,1,.93,2.38,21.78,21.78,0,0,1-.23,2.32l-.75,6.22h-2l.79-6.22a14.45,14.45,0,0,0,.16-1.73,2.22,2.22,0,0,0-.56-1.6,2,2,0,0,0-1.45-.56,2.54,2.54,0,0,0-1.74.67,4.65,4.65,0,0,0-1.09,3l-.78,6.47h-2l.84-6.89a3.05,3.05,0,0,0-.48-2.66,1.89,1.89,0,0,0-1.48-.56,2.3,2.3,0,0,0-1.65.67,5.17,5.17,0,0,0-1.12,3.11l-.79,6.33h-2Z" transform="translate(0 118.51)"/><path class="cls-7" d="M1340.31,421.07a1.84,1.84,0,0,0-.47-.79,1.32,1.32,0,0,0-1-.39,1.65,1.65,0,0,0-1.12.37,1.34,1.34,0,0,0-.45,1,1.08,1.08,0,0,0,.34.81,4.26,4.26,0,0,0,1.15.68l1.06.53a6.55,6.55,0,0,1,1.48,1,3,3,0,0,1,.76,2.08,3.92,3.92,0,0,1-1,2.68,4.42,4.42,0,0,1-3.33,1.24,3.59,3.59,0,0,1-2.44-.76,4.3,4.3,0,0,1-1.37-2.21l1.76-.73a3.72,3.72,0,0,0,.7,1.37,1.9,1.9,0,0,0,1.4.53,2.25,2.25,0,0,0,1.57-.5,2,2,0,0,0,.59-1.48,1.46,1.46,0,0,0-.62-1.21,8.52,8.52,0,0,0-1.2-.7l-.64-.31a5,5,0,0,1-1.54-1.06,2.59,2.59,0,0,1-.65-1.82,3.3,3.3,0,0,1,1-2.38,3.47,3.47,0,0,1,2.63-1,3.11,3.11,0,0,1,2.1.7,3.77,3.77,0,0,1,1.07,1.4Z" transform="translate(0 118.51)"/><path class="cls-7" d="M1345.75,428.74a5.72,5.72,0,0,1-1.49-4.06,6.39,6.39,0,0,1,2.1-4.84,6.51,6.51,0,0,1,4.65-1.74,5.76,5.76,0,0,1,4.26,1.6,5.14,5.14,0,0,1,1.42,3.8,6.8,6.8,0,0,1-2,5,6.59,6.59,0,0,1-4.84,1.8A5.33,5.33,0,0,1,1345.75,428.74Zm2.07-7.56a5,5,0,0,0-1.49,3.64,3.69,3.69,0,0,0,1,2.63,3.55,3.55,0,0,0,2.69,1.09,4.15,4.15,0,0,0,3.16-1.34,5.5,5.5,0,0,0,1.4-3.67,3.66,3.66,0,0,0-.95-2.57,3.62,3.62,0,0,0-2.66-1.07A4.47,4.47,0,0,0,1347.82,421.18Z" transform="translate(0 118.51)"/><path class="cls-7" d="M1360.5,418.38h2l-.17,1.34a5.21,5.21,0,0,1,1.18-1.09,4,4,0,0,1,2.15-.53,3.8,3.8,0,0,1,2.77,1,3.42,3.42,0,0,1,.93,2.6,17.84,17.84,0,0,1-.17,1.93l-.78,6.36h-2l.7-5.8c.06-.47.17-1.45.17-2a2.39,2.39,0,0,0-.59-1.74,2.27,2.27,0,0,0-1.62-.59,2.86,2.86,0,0,0-2.08.81,5.9,5.9,0,0,0-1.14,3.22l-.76,6.08h-2Z" transform="translate(0 118.51)"/><path class="cls-7" d="M1373.63,418.38h2l-.17,1.34a5.21,5.21,0,0,1,1.18-1.09,4,4,0,0,1,2.15-.53,3.82,3.82,0,0,1,2.78,1,3.45,3.45,0,0,1,.92,2.6,15.62,15.62,0,0,1-.17,1.93l-.78,6.36h-2l.7-5.8c.06-.47.17-1.45.17-2a2.39,2.39,0,0,0-.59-1.74,2.23,2.23,0,0,0-1.62-.59,2.82,2.82,0,0,0-2.07.81,5.84,5.84,0,0,0-1.15,3.22l-.76,6.08h-2Z" transform="translate(0 118.51)"/><path class="cls-7" d="M1395.53,421.63a5.9,5.9,0,0,0-1.46-1.23,4.53,4.53,0,0,0-2.1-.51,4.36,4.36,0,0,0-3.1,1.21,4.73,4.73,0,0,0-1.49,3.52,4,4,0,0,0,1.12,2.92,3.63,3.63,0,0,0,2.69,1,4.43,4.43,0,0,0,2.16-.5,5.39,5.39,0,0,0,1.62-1.32l-.28,2.41a5.52,5.52,0,0,1-1.68.9,6.75,6.75,0,0,1-2.07.31,5.39,5.39,0,0,1-4.09-1.54,5.73,5.73,0,0,1-1.54-4.06,7,7,0,0,1,2-4.88,6.49,6.49,0,0,1,4.7-1.76,6.68,6.68,0,0,1,3.78,1.12Z" transform="translate(0 118.51)"/><path class="cls-7" d="M1400.18,409.59h2l-1.26,10.13a5.21,5.21,0,0,1,1.18-1.09,4,4,0,0,1,2.13-.53,3.91,3.91,0,0,1,2.8,1,3.45,3.45,0,0,1,.92,2.6,15.62,15.62,0,0,1-.17,1.93L1407,430h-2l.7-5.8c.06-.47.17-1.45.17-2a2.39,2.39,0,0,0-.59-1.74,2.23,2.23,0,0,0-1.62-.59,2.83,2.83,0,0,0-2.07.81,5.84,5.84,0,0,0-1.15,3.22l-.76,6.08h-2Z" transform="translate(0 118.51)"/><path class="cls-7" d="M1414.23,418.38,1412.8,430h-2l1.43-11.62Zm-1.51-5.29a1.55,1.55,0,0,1,1.21-.53,1.18,1.18,0,0,1,.89.33,1.26,1.26,0,0,1,.37.93,1.56,1.56,0,0,1-.45,1.12,1.5,1.5,0,0,1-1.12.47,1.25,1.25,0,0,1-.95-.39,1.18,1.18,0,0,1-.34-.87A1.65,1.65,0,0,1,1412.72,413.09Z" transform="translate(0 118.51)"/><path class="cls-7" d="M1418,418.38h2l-.17,1.34a5.31,5.31,0,0,1,1.17-1.09,4,4,0,0,1,2.16-.53,3.8,3.8,0,0,1,2.77,1,3.42,3.42,0,0,1,.93,2.6,17.84,17.84,0,0,1-.17,1.93L1426,430h-2l.7-5.8c.06-.47.17-1.45.17-2a2.39,2.39,0,0,0-.59-1.74,2.27,2.27,0,0,0-1.62-.59,2.86,2.86,0,0,0-2.08.81,6,6,0,0,0-1.15,3.22l-.75,6.08h-2Z" transform="translate(0 118.51)"/></g></g></g></g></g></svg>