<svg xmlns="http://www.w3.org/2000/svg" xmlns:xlink="http://www.w3.org/1999/xlink" width="1500" height="500" viewBox="0 0 1500 500">
  <defs>
    <style>
      .cls-1 {
        clip-path: url(#clip-Bryan_Murphy_Dev_-_GitHub_Banner_1);
      }

      .cls-2 {
        fill: #457b9d;
      }

      .cls-3 {
        fill: #e63946;
      }

      .cls-4 {
        fill: #fff;
      }

      .cls-5 {
        fill: #f1faee;
      }

      .cls-6 {
        filter: url(#Rectangle_24);
      }
    </style>
    <filter id="Rectangle_24" x="397.48" y="-145.506" width="1567.038" height="1210.013" filterUnits="userSpaceOnUse">
      <feOffset dy="-18" input="SourceAlpha"/>
      <feGaussianBlur stdDeviation="3" result="blur"/>
      <feFlood flood-color="#457b9d" flood-opacity="0.169"/>
      <feComposite operator="in" in2="blur"/>
      <feComposite in="SourceGraphic"/>
    </filter>
    <clipPath id="clip-Bryan_Murphy_Dev_-_GitHub_Banner_1">
      <rect width="1500" height="500"/>
    </clipPath>
  </defs>
  <g id="Bryan_Murphy_Dev_-_GitHub_Banner_1" data-name="Bryan Murphy Dev - GitHub Banner – 1" class="cls-1">
    <rect class="cls-5" width="1500" height="500"/>
    <g class="cls-6" transform="matrix(1, 0, 0, 1, 0, 0)">
      <rect id="Rectangle_24-2" data-name="Rectangle 24" class="cls-2" width="1500" height="500" transform="translate(406.48 631.49) rotate(-30)"/>
    </g>
    <path id="Path_7" data-name="Path 7" class="cls-3" d="M5.6,0H25.44c5.6,0,11.84-.8,16.08-5.04a15.722,15.722,0,0,0,4.32-11.44,10.885,10.885,0,0,0-3.44-8.48,13.217,13.217,0,0,0-6.08-3.2,10.9,10.9,0,0,0,5.6-4.08,13.531,13.531,0,0,0,2.48-8.32,12.453,12.453,0,0,0-3.44-9.12c-3.36-3.28-8.16-3.68-11.76-3.68H12.16ZM23.28-43.76h2.56c1.76,0,3.92.08,5.44,1.28a5.073,5.073,0,0,1,1.68,4,6.776,6.776,0,0,1-1.84,4.8c-1.84,1.76-4.72,2-6.8,2H21.84Zm-2.56,21.2h4.8c1.12,0,4.8.08,6.56,1.84a5.637,5.637,0,0,1,1.44,4A6.55,6.55,0,0,1,31.6-11.6c-1.92,1.76-5.68,2-8,2H19.12ZM52,0H63.52l1.92-15.2c.48-3.84,1.44-7.2,3.44-9.12a8.487,8.487,0,0,1,5.92-2.16,11.068,11.068,0,0,1,5.04,1.2L82.08-36a18.569,18.569,0,0,0-4.72-.56,13.352,13.352,0,0,0-6,1.44,11.166,11.166,0,0,0-4.48,4.72l1.04-5.28H56.4ZM84,18.32H96.96l34.48-54H117.92l-12,19.52L98-35.68H84.88L98.72-4.56Zm78.08-49.68a12.852,12.852,0,0,0-4.88-4.16,16.079,16.079,0,0,0-6.96-1.36,17.478,17.478,0,0,0-13.12,5.2c-3.44,3.52-5.76,8.8-5.76,15.36,0,6.16,2.16,10.32,4.8,13.12,3.12,3.28,6.64,4.4,11.04,4.4a16.98,16.98,0,0,0,6.64-1.28,15.515,15.515,0,0,0,5.04-4L158,0h11.52l4.4-35.68H162.4Zm-9.36,4.4a8.485,8.485,0,0,1,6,2,8.231,8.231,0,0,1,2.48,6.16,10.887,10.887,0,0,1-3.04,7.68,9.3,9.3,0,0,1-6.56,2.4,7.958,7.958,0,0,1-6.08-2.4,8.586,8.586,0,0,1-2.32-6.08,10.108,10.108,0,0,1,2.72-7.12A9.038,9.038,0,0,1,152.72-26.96Zm30.56-8.72L178.88,0H190.4l2.08-17.6c.24-1.92.72-5.36,2.8-7.52a6.92,6.92,0,0,1,5.2-1.92,5.924,5.924,0,0,1,4.24,1.52,6.144,6.144,0,0,1,1.44,4.32,42.369,42.369,0,0,1-.48,5.76L203.76,0h11.52l2.16-18.32a54.245,54.245,0,0,0,.56-6.8c0-2.16-.24-5.76-3.04-8.48-2.72-2.64-6.32-3.04-9.28-3.04a13.4,13.4,0,0,0-7.04,1.52,16.959,16.959,0,0,0-4.4,3.36l.56-3.92ZM254.08,0l8.16-31.84L271.6,0h4.64l17.04-31.84L293.6,0h12.32L304-53.36H293.52L276.24-21.44l-9.12-31.92H256.96L241.76,0Zm89.04-35.68-2.24,18.72c-.48,4.24-1.84,5.92-2.32,6.4a7.5,7.5,0,0,1-5.28,2,7.577,7.577,0,0,1-4.72-1.52A5.116,5.116,0,0,1,327.04-14c0-.88.16-1.68.4-3.92l2.08-17.76H318l-2.16,18.16a46.042,46.042,0,0,0-.4,5.04,13.266,13.266,0,0,0,3.84,9.6c4,3.84,10.32,4.08,13.92,4.08,4.08,0,9.76-.48,14-4.56,4-3.84,4.72-8.8,5.2-13.04l2.24-19.28ZM359.36,0h11.52l1.92-15.2c.48-3.84,1.44-7.2,3.44-9.12a8.487,8.487,0,0,1,5.92-2.16,11.068,11.068,0,0,1,5.04,1.2L389.44-36a18.569,18.569,0,0,0-4.72-.56,13.352,13.352,0,0,0-6,1.44,11.166,11.166,0,0,0-4.48,4.72l1.04-5.28H363.76ZM402.4-4.4a13.415,13.415,0,0,0,4.64,4.08A16.626,16.626,0,0,0,414.8,1.2a15.973,15.973,0,0,0,12.08-4.8c3.52-3.52,6-9.2,6-16,0-5.52-1.84-10.48-4.72-13.36-1.92-1.84-5.28-3.92-10.8-3.92A15.324,15.324,0,0,0,410-35.2a14.9,14.9,0,0,0-4.48,3.68l.64-4.16H394.64l-6.64,54h11.52Zm10.48-22.56a8.574,8.574,0,0,1,5.68,2.08,8.584,8.584,0,0,1,2.48,6,11.327,11.327,0,0,1-3.2,7.68,9.436,9.436,0,0,1-6.4,2.48,8.3,8.3,0,0,1-6-2.48,8.338,8.338,0,0,1-2.16-5.84,9.646,9.646,0,0,1,2.88-7.2A9.037,9.037,0,0,1,412.88-26.96Zm32.56-31.36L438.24,0h11.52l2.08-17.6c.24-1.92.72-5.44,2.8-7.52A6.974,6.974,0,0,1,460-27.04a5.8,5.8,0,0,1,4.08,1.52,6.144,6.144,0,0,1,1.44,4.32,42.369,42.369,0,0,1-.48,5.76L463.12,0h11.52l2.16-18.32a54.249,54.249,0,0,0,.56-6.8c0-2.16-.24-5.76-3.04-8.48-2.72-2.64-6.24-3.04-9.04-3.04A13.928,13.928,0,0,0,458-35.12a17.324,17.324,0,0,0-4.4,3.36l3.36-26.56Zm36.88,76.64h12.96l34.48-54H516.24l-12,19.52-7.92-19.52H483.2L497.04-4.56Z" transform="translate(143 179)"/>
    <path id="Path_8" data-name="Path 8" class="cls-3" d="M4.128,47H10.32c6.1,0,11.184-.864,15.12-4.9,3.792-3.888,4.656-9.072,4.656-12.768,0-5.28-1.92-8.448-3.888-10.368-3.648-3.456-8.736-3.984-12.336-3.984H8.064Zm7.056-28.656H14.3c2.256,0,6.192.24,9.168,3.312a10.973,10.973,0,0,1,2.88,7.968c0,2.5-.48,7.008-3.7,10.224-2.928,2.928-6.96,3.792-12.192,3.792H8.112Zm38.3,21.984A9.95,9.95,0,0,1,46.9,43.4a6.484,6.484,0,0,1-3.84,1.1,5.223,5.223,0,0,1-3.936-1.488,6.927,6.927,0,0,1-1.776-5.28h15.5c.528-4.56-.816-7.3-2.256-8.784a8.705,8.705,0,0,0-6.48-2.352,9.188,9.188,0,0,0-6.96,2.784,12,12,0,0,0-3.408,8.544,9.876,9.876,0,0,0,2.64,7.152,8.358,8.358,0,0,0,6.576,2.5,10.219,10.219,0,0,0,5.76-1.536,14,14,0,0,0,3.7-4.128ZM37.92,34.856a7.548,7.548,0,0,1,1.92-3.5,5.75,5.75,0,0,1,4.368-1.68,5.126,5.126,0,0,1,3.648,1.248,5.9,5.9,0,0,1,1.68,3.936ZM69.984,30.2a6.4,6.4,0,0,0-1.824-2.4,5.345,5.345,0,0,0-3.6-1.2,5.942,5.942,0,0,0-4.512,1.68,5.638,5.638,0,0,0-1.68,4.08,4.458,4.458,0,0,0,1.1,3.12,8.973,8.973,0,0,0,2.64,1.824l1.1.528a14.794,14.794,0,0,1,2.064,1.2A2.526,2.526,0,0,1,66.336,41.1a3.474,3.474,0,0,1-1.008,2.544,3.918,3.918,0,0,1-2.688.864,3.214,3.214,0,0,1-2.4-.912,6.094,6.094,0,0,1-1.2-2.352l-3.024,1.248a7.419,7.419,0,0,0,2.352,3.792,6.079,6.079,0,0,0,4.176,1.3,7.557,7.557,0,0,0,5.712-2.112,6.779,6.779,0,0,0,1.68-4.608,5.025,5.025,0,0,0-1.3-3.552A11.544,11.544,0,0,0,66.1,35.528l-1.824-.912A7.093,7.093,0,0,1,62.3,33.464a1.884,1.884,0,0,1-.576-1.392A2.33,2.33,0,0,1,62.5,30.3a2.806,2.806,0,0,1,1.92-.624,2.206,2.206,0,0,1,1.728.672,3.222,3.222,0,0,1,.816,1.344Zm6.24-3.12L73.776,47h3.456L79.68,27.08Zm.192-7.248a2.065,2.065,0,0,0,.576,1.488,2.175,2.175,0,0,0,1.632.672,2.57,2.57,0,0,0,1.92-.816,2.626,2.626,0,0,0,.768-1.92,2.134,2.134,0,0,0-.624-1.584,2.027,2.027,0,0,0-1.536-.576,2.624,2.624,0,0,0-2.064.912A2.818,2.818,0,0,0,76.416,19.832Zm24.72,10.08a6.7,6.7,0,0,0-2.5-2.352,9.314,9.314,0,0,0-4.416-.96,9.84,9.84,0,0,0-7.392,2.928,12.744,12.744,0,0,0-3.216,8.736,9.343,9.343,0,0,0,2.5,6.768,8.567,8.567,0,0,0,6.576,2.544,9.029,9.029,0,0,0,3.84-.864,7.124,7.124,0,0,0,2.832-2.5l-.288,2.88c-.192,1.824-.432,4.368-2.208,6.1a6.888,6.888,0,0,1-5.04,1.776A5.906,5.906,0,0,1,87.7,53.576a5.68,5.68,0,0,1-1.584-4.464V48.92H82.7v.288a9.224,9.224,0,0,0,2.256,6.48c1.2,1.2,3.264,2.352,6.72,2.352,4.08,0,6.48-1.536,7.776-2.88,2.352-2.4,2.736-5.52,3.12-8.64l2.352-19.44h-3.456Zm-6.528-.24a5.461,5.461,0,0,1,4.176,1.68,7.374,7.374,0,0,1,1.728,4.8,9.481,9.481,0,0,1-2.544,6.624,7.165,7.165,0,0,1-4.9,1.728,5.564,5.564,0,0,1-4.08-1.584,6.886,6.886,0,0,1-1.776-4.9A8.813,8.813,0,0,1,89.808,31.5,6.744,6.744,0,0,1,94.608,29.672ZM109.008,47h3.456l1.3-10.416c.24-1.776.624-4.128,1.968-5.52a4.831,4.831,0,0,1,3.552-1.392,3.9,3.9,0,0,1,2.784,1.008,4.076,4.076,0,0,1,1.008,2.976c0,.912-.192,2.592-.288,3.408L121.584,47h3.456l1.344-10.9a29.01,29.01,0,0,0,.288-3.312,5.922,5.922,0,0,0-1.584-4.464,6.52,6.52,0,0,0-4.752-1.728,6.9,6.9,0,0,0-3.7.912,8.737,8.737,0,0,0-2.016,1.872l.288-2.3h-3.456ZM162.1,14.984H147.5L143.568,47h3.552l1.968-15.84h10.656l.384-3.36H149.472l1.152-9.456h11.04Zm9.024,32.592a11.339,11.339,0,0,0,8.3-3.072,11.709,11.709,0,0,0,3.36-8.64,8.825,8.825,0,0,0-2.448-6.528,9.84,9.84,0,0,0-7.3-2.736,11.176,11.176,0,0,0-7.968,2.976,10.985,10.985,0,0,0-3.6,8.3,9.867,9.867,0,0,0,2.544,6.96A9.158,9.158,0,0,0,171.12,47.576Zm1.872-17.9a6.232,6.232,0,0,1,4.56,1.824,6.337,6.337,0,0,1,1.632,4.416,9.475,9.475,0,0,1-2.4,6.288,7.171,7.171,0,0,1-5.424,2.3,6.093,6.093,0,0,1-4.608-1.872,6.384,6.384,0,0,1-1.728-4.512,8.547,8.547,0,0,1,2.544-6.24A7.646,7.646,0,0,1,172.992,29.672Zm31.824-1.152a11.47,11.47,0,0,0-6.48-1.92,11.139,11.139,0,0,0-8.064,3.024,11.932,11.932,0,0,0-3.456,8.352,9.8,9.8,0,0,0,2.64,6.96,9.236,9.236,0,0,0,7.008,2.64,11.387,11.387,0,0,0,3.552-.528,9.368,9.368,0,0,0,2.88-1.536l.48-4.128a9.287,9.287,0,0,1-2.784,2.256,7.5,7.5,0,0,1-3.7.864,6.188,6.188,0,0,1-4.608-1.728,6.821,6.821,0,0,1-1.92-4.992,8.186,8.186,0,0,1,2.544-6.048,7.511,7.511,0,0,1,5.328-2.064,7.818,7.818,0,0,1,3.6.864,10.427,10.427,0,0,1,2.5,2.112Zm9.024-1.44h-3.456L209.136,37.3c-.1.864-.288,2.448-.288,3.408a6.139,6.139,0,0,0,1.968,5.04,8.321,8.321,0,0,0,5.808,1.824,7.988,7.988,0,0,0,5.76-2.064c1.776-1.824,2.112-4.368,2.448-7.008l1.392-11.424h-3.456l-1.344,11.04c-.288,2.256-.528,4.032-1.68,5.184a4.674,4.674,0,0,1-3.216,1.2,4.559,4.559,0,0,1-2.976-1.008,3.892,3.892,0,0,1-1.2-3.312,22.694,22.694,0,0,1,.192-2.592Zm29.472,3.12a6.4,6.4,0,0,0-1.824-2.4,5.345,5.345,0,0,0-3.6-1.2,5.942,5.942,0,0,0-4.512,1.68,5.638,5.638,0,0,0-1.68,4.08,4.458,4.458,0,0,0,1.1,3.12,8.973,8.973,0,0,0,2.64,1.824l1.1.528a14.794,14.794,0,0,1,2.064,1.2,2.526,2.526,0,0,1,1.056,2.064,3.474,3.474,0,0,1-1.008,2.544,3.918,3.918,0,0,1-2.688.864,3.214,3.214,0,0,1-2.4-.912,6.094,6.094,0,0,1-1.2-2.352l-3.024,1.248A7.419,7.419,0,0,0,231.7,46.28a6.079,6.079,0,0,0,4.176,1.3,7.557,7.557,0,0,0,5.712-2.112,6.779,6.779,0,0,0,1.68-4.608,5.025,5.025,0,0,0-1.3-3.552,11.544,11.544,0,0,0-2.544-1.776l-1.824-.912a7.093,7.093,0,0,1-1.968-1.152,1.884,1.884,0,0,1-.576-1.392,2.33,2.33,0,0,1,.768-1.776,2.806,2.806,0,0,1,1.92-.624,2.206,2.206,0,0,1,1.728.672,3.222,3.222,0,0,1,.816,1.344ZM262.8,40.328a9.95,9.95,0,0,1-2.592,3.072,6.484,6.484,0,0,1-3.84,1.1,5.223,5.223,0,0,1-3.936-1.488,6.927,6.927,0,0,1-1.776-5.28h15.5c.528-4.56-.816-7.3-2.256-8.784a8.705,8.705,0,0,0-6.48-2.352,9.188,9.188,0,0,0-6.96,2.784,12,12,0,0,0-3.408,8.544,9.876,9.876,0,0,0,2.64,7.152,8.358,8.358,0,0,0,6.576,2.5,10.219,10.219,0,0,0,5.76-1.536,14,14,0,0,0,3.7-4.128Zm-11.568-5.472a7.548,7.548,0,0,1,1.92-3.5,5.75,5.75,0,0,1,4.368-1.68,5.126,5.126,0,0,1,3.648,1.248,5.9,5.9,0,0,1,1.68,3.936Zm36.528-4.944a7.434,7.434,0,0,0-2.592-2.352,10.826,10.826,0,0,0-4.32-.96,10.226,10.226,0,0,0-7.1,2.736,12.313,12.313,0,0,0-3.456,8.64,10.045,10.045,0,0,0,2.928,7.344,8.353,8.353,0,0,0,6.1,2.256,8.246,8.246,0,0,0,3.888-.864,7.559,7.559,0,0,0,2.784-2.5L285.648,47H289.1l4.32-34.992h-3.456Zm-6.768-.24a5.612,5.612,0,0,1,4.32,1.728,7.485,7.485,0,0,1,1.824,5.088,9.374,9.374,0,0,1-2.3,6.288,6.349,6.349,0,0,1-4.7,1.728,5.675,5.675,0,0,1-4.416-1.776,7.194,7.194,0,0,1-1.872-5.088,8.42,8.42,0,0,1,2.5-6.192A6.543,6.543,0,0,1,280.992,29.672Zm45.216-14.688H311.616L307.68,47h3.552L313.2,31.16h10.656l.384-3.36H313.584l1.152-9.456h11.04Zm5.76,12.1h-3.456L327.264,37.3c-.1.864-.288,2.448-.288,3.408a6.139,6.139,0,0,0,1.968,5.04,8.321,8.321,0,0,0,5.808,1.824,7.988,7.988,0,0,0,5.76-2.064c1.776-1.824,2.112-4.368,2.448-7.008l1.392-11.424H340.9l-1.344,11.04c-.288,2.256-.528,4.032-1.68,5.184a4.674,4.674,0,0,1-3.216,1.2A4.559,4.559,0,0,1,331.68,43.5a3.892,3.892,0,0,1-1.2-3.312,22.694,22.694,0,0,1,.192-2.592Zm20.784-15.072L348.432,47h3.456l4.32-34.992Zm9.984,0L358.416,47h3.456l4.32-34.992Zm38.208,7.44a7.8,7.8,0,0,0-2.88-3.648,9.7,9.7,0,0,0-5.28-1.344,9.533,9.533,0,0,0-7.056,2.688,7.979,7.979,0,0,0-2.5,6.048,6.887,6.887,0,0,0,1.824,4.944,13.542,13.542,0,0,0,3.792,2.448l2.544,1.2a15.81,15.81,0,0,1,3.12,1.92,5.418,5.418,0,0,1,1.728,4.08,6.937,6.937,0,0,1-1.728,4.656,6.644,6.644,0,0,1-4.992,1.776,5.807,5.807,0,0,1-4.56-1.68,6.6,6.6,0,0,1-1.728-4.176l-3.552.96a10.086,10.086,0,0,0,2.688,5.856c1.92,1.92,4.032,2.4,6.624,2.4a10.948,10.948,0,0,0,8.3-3.072,10.152,10.152,0,0,0,2.688-7.248,7.124,7.124,0,0,0-2.16-5.616,12.974,12.974,0,0,0-4.08-2.736l-2.88-1.344a14.666,14.666,0,0,1-2.688-1.68,3.872,3.872,0,0,1-1.344-2.928,5.279,5.279,0,0,1,1.68-3.792,5.832,5.832,0,0,1,4.032-1.344,5.6,5.6,0,0,1,3.6,1.008,5.486,5.486,0,0,1,1.776,2.5Zm12.576,10.8.384-3.168h-3.456l.864-7.2h-3.456l-.864,7.2H404.88l-.384,3.168h2.112L404.544,47H408l2.064-16.752Zm18.672-.336a6.679,6.679,0,0,0-2.64-2.352,8.715,8.715,0,0,0-4.224-.96,9.8,9.8,0,0,0-7.152,2.592,11.95,11.95,0,0,0-3.456,8.832,9.928,9.928,0,0,0,2.592,7.1,9.47,9.47,0,0,0,10.608,1.44,8.376,8.376,0,0,0,2.5-2.352L430.08,47h3.456l2.448-19.92h-3.456Zm-6.576-.24a5.752,5.752,0,0,1,4.08,1.584,6.336,6.336,0,0,1,1.872,4.8,9.66,9.66,0,0,1-2.256,6.48,6.422,6.422,0,0,1-4.944,1.968,5.575,5.575,0,0,1-4.032-1.488,7.243,7.243,0,0,1-2.064-5.232,8.836,8.836,0,0,1,2.544-6.24A6.823,6.823,0,0,1,425.616,29.672Zm32.4-1.152a11.47,11.47,0,0,0-6.48-1.92,11.139,11.139,0,0,0-8.064,3.024,11.932,11.932,0,0,0-3.456,8.352,9.8,9.8,0,0,0,2.64,6.96,9.236,9.236,0,0,0,7.008,2.64,11.387,11.387,0,0,0,3.552-.528,9.368,9.368,0,0,0,2.88-1.536l.48-4.128a9.287,9.287,0,0,1-2.784,2.256,7.5,7.5,0,0,1-3.7.864,6.188,6.188,0,0,1-4.608-1.728,6.821,6.821,0,0,1-1.92-4.992,8.185,8.185,0,0,1,2.544-6.048,7.511,7.511,0,0,1,5.328-2.064,7.818,7.818,0,0,1,3.6.864,10.426,10.426,0,0,1,2.5,2.112ZM465.5,12.008,461.184,47h3.456l1.008-8.208.96-.864L473.472,47h4.416L469.2,35.624l9.7-8.544h-4.512l-8.208,7.392,2.784-22.464Zm48.528,2.976H497.424L493.488,47H510.1l.432-3.36H497.472l1.488-12.432h12.672l.432-3.36H499.392l1.152-9.5H513.6ZM515.76,47h3.456l1.3-10.416c.24-1.776.624-4.128,1.968-5.52a4.831,4.831,0,0,1,3.552-1.392,3.9,3.9,0,0,1,2.784,1.008,4.076,4.076,0,0,1,1.008,2.976c0,.912-.192,2.592-.288,3.408L528.336,47h3.456l1.344-10.9a29.015,29.015,0,0,0,.288-3.312,5.922,5.922,0,0,0-1.584-4.464,6.52,6.52,0,0,0-4.752-1.728,6.9,6.9,0,0,0-3.7.912,8.738,8.738,0,0,0-2.016,1.872l.288-2.3h-3.456Zm39.888-17.088a6.7,6.7,0,0,0-2.5-2.352,9.314,9.314,0,0,0-4.416-.96,9.84,9.84,0,0,0-7.392,2.928,12.744,12.744,0,0,0-3.216,8.736,9.342,9.342,0,0,0,2.5,6.768,8.567,8.567,0,0,0,6.576,2.544,9.029,9.029,0,0,0,3.84-.864,7.124,7.124,0,0,0,2.832-2.5l-.288,2.88c-.192,1.824-.432,4.368-2.208,6.1a6.887,6.887,0,0,1-5.04,1.776,5.906,5.906,0,0,1-4.128-1.392,5.68,5.68,0,0,1-1.584-4.464V48.92h-3.408v.288a9.224,9.224,0,0,0,2.256,6.48c1.2,1.2,3.264,2.352,6.72,2.352,4.08,0,6.48-1.536,7.776-2.88,2.352-2.4,2.736-5.52,3.12-8.64l2.352-19.44h-3.456Zm-6.528-.24a5.461,5.461,0,0,1,4.176,1.68,7.374,7.374,0,0,1,1.728,4.8,9.481,9.481,0,0,1-2.544,6.624,7.165,7.165,0,0,1-4.9,1.728,5.564,5.564,0,0,1-4.08-1.584,6.886,6.886,0,0,1-1.776-4.9A8.813,8.813,0,0,1,544.32,31.5,6.744,6.744,0,0,1,549.12,29.672Zm16.848-2.592L563.52,47h3.456l2.448-19.92Zm.192-7.248a2.065,2.065,0,0,0,.576,1.488,2.175,2.175,0,0,0,1.632.672,2.57,2.57,0,0,0,1.92-.816,2.626,2.626,0,0,0,.768-1.92,2.134,2.134,0,0,0-.624-1.584A2.027,2.027,0,0,0,568.9,17.1a2.624,2.624,0,0,0-2.064.912A2.818,2.818,0,0,0,566.16,19.832ZM573.5,47h3.456l1.3-10.416c.24-1.776.624-4.128,1.968-5.52a4.831,4.831,0,0,1,3.552-1.392,3.9,3.9,0,0,1,2.784,1.008,4.076,4.076,0,0,1,1.008,2.976c0,.912-.192,2.592-.288,3.408L586.08,47h3.456l1.344-10.9a29.015,29.015,0,0,0,.288-3.312,5.922,5.922,0,0,0-1.584-4.464,6.52,6.52,0,0,0-4.752-1.728,6.9,6.9,0,0,0-3.7.912,8.738,8.738,0,0,0-2.016,1.872l.288-2.3h-3.456Zm38.208-6.672A9.951,9.951,0,0,1,609.12,43.4a6.484,6.484,0,0,1-3.84,1.1,5.223,5.223,0,0,1-3.936-1.488,6.927,6.927,0,0,1-1.776-5.28h15.5c.528-4.56-.816-7.3-2.256-8.784a8.705,8.705,0,0,0-6.48-2.352,9.188,9.188,0,0,0-6.96,2.784,12,12,0,0,0-3.408,8.544,9.876,9.876,0,0,0,2.64,7.152,8.358,8.358,0,0,0,6.576,2.5,10.219,10.219,0,0,0,5.76-1.536,14,14,0,0,0,3.7-4.128Zm-11.568-5.472a7.547,7.547,0,0,1,1.92-3.5,5.75,5.75,0,0,1,4.368-1.68,5.126,5.126,0,0,1,3.648,1.248,5.9,5.9,0,0,1,1.68,3.936ZM634.9,40.328A9.951,9.951,0,0,1,632.3,43.4a6.484,6.484,0,0,1-3.84,1.1,5.223,5.223,0,0,1-3.936-1.488,6.927,6.927,0,0,1-1.776-5.28h15.5c.528-4.56-.816-7.3-2.256-8.784a8.705,8.705,0,0,0-6.48-2.352,9.188,9.188,0,0,0-6.96,2.784,12,12,0,0,0-3.408,8.544,9.876,9.876,0,0,0,2.64,7.152,8.358,8.358,0,0,0,6.576,2.5,10.219,10.219,0,0,0,5.76-1.536,14,14,0,0,0,3.7-4.128Zm-11.568-5.472a7.547,7.547,0,0,1,1.92-3.5,5.75,5.75,0,0,1,4.368-1.68,5.126,5.126,0,0,1,3.648,1.248,5.9,5.9,0,0,1,1.68,3.936ZM642.384,47h3.456l1.3-10.512c.24-1.968.576-4.224,1.968-5.568a3.58,3.58,0,0,1,2.64-1.056,3.238,3.238,0,0,1,2.064.672l2.016-3.12A5.134,5.134,0,0,0,652.9,26.6a5.636,5.636,0,0,0-4.9,2.64l.288-2.16h-3.456Z" transform="translate(322 208)"/>
    <g id="Group_1" data-name="Group 1" transform="translate(0 85)">
      <path id="linkedin-in-brands" class="cls-4" d="M8.058,36.01H.595V11.975H8.058ZM4.322,8.7A4.343,4.343,0,1,1,8.645,4.333,4.359,4.359,0,0,1,4.322,8.7ZM35.992,36.01H28.544V24.31c0-2.788-.056-6.364-3.88-6.364-3.88,0-4.475,3.03-4.475,6.164v11.9H12.733V11.975h7.158v3.279H20a7.842,7.842,0,0,1,7.062-3.881c7.554,0,8.942,4.974,8.942,11.435v13.2Z" transform="translate(1163 231.99)"/>
      <path id="Path_10" data-name="Path 10" class="cls-4" d="M-.532,4.76l1.708.784L18.844-20.412l-1.68-.84Zm20.8-16.38L18.844,0H20.86l1.428-11.62Zm.112-4.228a1.2,1.2,0,0,0,.336.868,1.269,1.269,0,0,0,.952.392,1.5,1.5,0,0,0,1.12-.476,1.532,1.532,0,0,0,.448-1.12,1.245,1.245,0,0,0-.364-.924,1.182,1.182,0,0,0-.9-.336,1.531,1.531,0,0,0-1.2.532A1.644,1.644,0,0,0,20.384-15.848ZM24.668,0h2.016l.756-6.076A5.841,5.841,0,0,1,28.588-9.3a2.818,2.818,0,0,1,2.072-.812,2.272,2.272,0,0,1,1.624.588,2.378,2.378,0,0,1,.588,1.736c0,.532-.112,1.512-.168,1.988L32,0H34.02L34.8-6.356a16.923,16.923,0,0,0,.168-1.932,3.454,3.454,0,0,0-.924-2.6A3.8,3.8,0,0,0,31.276-11.9a4.025,4.025,0,0,0-2.156.532,5.1,5.1,0,0,0-1.176,1.092l.168-1.344H26.1Zm10.7,4.76,1.708.784L54.74-20.412l-1.68-.84ZM54.74,0h2.016l.784-6.328a5.153,5.153,0,0,1,1.12-3.108,2.26,2.26,0,0,1,1.652-.672,1.926,1.926,0,0,1,1.484.56,3.049,3.049,0,0,1,.476,2.66L61.432,0h2.016l.784-6.468a4.649,4.649,0,0,1,1.092-2.968,2.525,2.525,0,0,1,1.736-.672,1.972,1.972,0,0,1,1.456.56,2.228,2.228,0,0,1,.56,1.6,13.9,13.9,0,0,1-.168,1.736L68.124,0H70.14L70.9-6.216c.112-1.008.224-1.708.224-2.324a3.112,3.112,0,0,0-.924-2.38,3.76,3.76,0,0,0-2.716-.98,4.042,4.042,0,0,0-2.184.56,3.726,3.726,0,0,0-1.232,1.316,3.336,3.336,0,0,0-1.176-1.4,3.735,3.735,0,0,0-1.932-.476,3.479,3.479,0,0,0-1.792.448,3.155,3.155,0,0,0-1.12,1.064l.14-1.232H56.168ZM77.308-11.62H75.292l-.728,5.964c-.056.5-.168,1.428-.168,1.988a3.581,3.581,0,0,0,1.148,2.94A4.854,4.854,0,0,0,78.932.336a4.66,4.66,0,0,0,3.36-1.2c1.036-1.064,1.232-2.548,1.428-4.088l.812-6.664H82.516l-.784,6.44c-.168,1.316-.308,2.352-.98,3.024a2.726,2.726,0,0,1-1.876.7,2.659,2.659,0,0,1-1.736-.588,2.27,2.27,0,0,1-.7-1.932,13.239,13.239,0,0,1,.112-1.512ZM86.912,0h2.016l.756-6.132A5.378,5.378,0,0,1,90.832-9.38,2.089,2.089,0,0,1,92.372-10a1.889,1.889,0,0,1,1.2.392l1.176-1.82a3,3,0,0,0-1.708-.476,3.258,3.258,0,0,0-1.68.42,3.251,3.251,0,0,0-1.176,1.12l.168-1.26H88.34Zm10.5-1.624A4.532,4.532,0,0,0,98.728-.308a4.953,4.953,0,0,0,2.66.644,5.508,5.508,0,0,0,4.172-1.512A7.557,7.557,0,0,0,107.6-6.552a5.28,5.28,0,0,0-1.512-4,5.065,5.065,0,0,0-3.64-1.344,4.775,4.775,0,0,0-2.38.532A4.914,4.914,0,0,0,98.448-10l.2-1.624H96.628L94.388,6.44H96.4Zm3.92.168a3.325,3.325,0,0,1-2.6-1.12,4.079,4.079,0,0,1-.952-2.772,5.161,5.161,0,0,1,1.288-3.528,3.694,3.694,0,0,1,2.884-1.232,3.389,3.389,0,0,1,2.576.98,3.74,3.74,0,0,1,1.008,2.716,5.492,5.492,0,0,1-1.568,3.976A3.686,3.686,0,0,1,101.332-1.456ZM109.984,0H112l.756-6.076A5.841,5.841,0,0,1,113.9-9.3a2.818,2.818,0,0,1,2.072-.812,2.272,2.272,0,0,1,1.624.588,2.378,2.378,0,0,1,.588,1.736c0,.532-.112,1.512-.168,1.988l-.7,5.8h2.016l.784-6.356a16.923,16.923,0,0,0,.168-1.932,3.454,3.454,0,0,0-.924-2.6,3.905,3.905,0,0,0-2.8-1.008,3.992,3.992,0,0,0-2.128.532,5.1,5.1,0,0,0-1.176,1.092l1.26-10.136H112.5ZM122.3,6.44h2.24L135.3-11.62H133L128.184-3.3,125.1-11.62h-2.24l4.06,10.528Zm15.9-8.12a4.253,4.253,0,0,0,1.4,1.4,5.042,5.042,0,0,0,2.576.616,5.619,5.619,0,0,0,4.2-1.624A7.359,7.359,0,0,0,148.4-6.58a5.485,5.485,0,0,0-1.512-3.948A5.228,5.228,0,0,0,143.08-11.9a4.537,4.537,0,0,0-2.324.56A4.941,4.941,0,0,0,139.244-10l1.288-10.416h-2.016L136,0h2.016Zm4,.224a3.418,3.418,0,0,1-2.492-.98,4.228,4.228,0,0,1-1.176-3.024A5.046,5.046,0,0,1,140-8.988a3.831,3.831,0,0,1,2.744-1.12,3.459,3.459,0,0,1,2.52,1.036,4.006,4.006,0,0,1,1.064,2.828,5.508,5.508,0,0,1-1.484,3.752A3.76,3.76,0,0,1,142.212-1.456ZM162.344,0l.224-1.9h-7.9l4.452-4.4a40.763,40.763,0,0,0,3.248-3.388,6.832,6.832,0,0,0,1.68-4.452,4.57,4.57,0,0,0-1.428-3.444,5.7,5.7,0,0,0-3.892-1.4,6.062,6.062,0,0,0-4.284,1.624,7.248,7.248,0,0,0-1.932,4.144h2.072a4.778,4.778,0,0,1,1.176-2.828,3.705,3.705,0,0,1,2.8-1.036,3.518,3.518,0,0,1,2.492.868,3.029,3.029,0,0,1,.924,2.3,4.98,4.98,0,0,1-1.12,3.052,33.2,33.2,0,0,1-2.8,3.052L150.276,0Zm1.9,4.76,1.708.784,17.668-25.956-1.68-.84Z" transform="translate(1235 260)"/>
    </g>
    <g id="Group_3" data-name="Group 3" transform="translate(0 -168)">
      <path id="bold-solid" class="cls-4" d="M43.352,48.554a9.8,9.8,0,0,0,2.17-5.24A10.292,10.292,0,0,0,35.311,32H19.286A1.286,1.286,0,0,0,18,33.286v3.857a1.286,1.286,0,0,0,1.286,1.286h2.561V61.571H19.286A1.286,1.286,0,0,0,18,62.857v3.857A1.286,1.286,0,0,0,19.286,68h16.82a11.237,11.237,0,0,0,11.33-9.836A10.888,10.888,0,0,0,43.352,48.554ZM28.258,38.429h7.052a3.857,3.857,0,0,1,0,7.714H28.258Zm7.052,23.143H28.258v-9h7.052a4.5,4.5,0,1,1,0,9Z" transform="translate(1148 369)"/>
      <path id="Path_9" data-name="Path 9" class="cls-4" d="M4.116-1.68a4.253,4.253,0,0,0,1.4,1.4A5.042,5.042,0,0,0,8.092.336a5.619,5.619,0,0,0,4.2-1.624A7.359,7.359,0,0,0,14.308-6.58,5.485,5.485,0,0,0,12.8-10.528,5.228,5.228,0,0,0,8.988-11.9a4.537,4.537,0,0,0-2.324.56A4.941,4.941,0,0,0,5.152-10L6.44-20.412H4.424L1.9,0H3.92Zm4,.224a3.418,3.418,0,0,1-2.492-.98A4.228,4.228,0,0,1,4.452-5.46,5.046,5.046,0,0,1,5.908-8.988a3.831,3.831,0,0,1,2.744-1.12,3.459,3.459,0,0,1,2.52,1.036,4.006,4.006,0,0,1,1.064,2.828,5.508,5.508,0,0,1-1.484,3.752A3.76,3.76,0,0,1,8.12-1.456ZM16.688,0H18.7l.756-6.132A5.378,5.378,0,0,1,20.608-9.38,2.089,2.089,0,0,1,22.148-10a1.889,1.889,0,0,1,1.2.392l1.176-1.82A3,3,0,0,0,22.82-11.9a3.258,3.258,0,0,0-1.68.42,3.251,3.251,0,0,0-1.176,1.12l.168-1.26H18.116Zm8.344,6.44h2.24L38.024-11.62h-2.3L30.912-3.3l-3.08-8.316h-2.24l4.06,10.528ZM48.916-9.968a3.9,3.9,0,0,0-1.54-1.372,5.084,5.084,0,0,0-2.464-.56,5.715,5.715,0,0,0-4.172,1.512,6.971,6.971,0,0,0-2.016,5.152,5.791,5.791,0,0,0,1.512,4.144A4.821,4.821,0,0,0,44.016.336a4.826,4.826,0,0,0,2.408-.588A4.886,4.886,0,0,0,47.88-1.624L47.684,0H49.7l1.428-11.62H49.112Zm-3.836-.14a3.355,3.355,0,0,1,2.38.924,3.7,3.7,0,0,1,1.092,2.8A5.635,5.635,0,0,1,47.236-2.6a3.746,3.746,0,0,1-2.884,1.148A3.252,3.252,0,0,1,42-2.324a4.225,4.225,0,0,1-1.2-3.052,5.155,5.155,0,0,1,1.484-3.64A3.98,3.98,0,0,1,45.08-10.108ZM53.508,0h2.016l.756-6.076A5.841,5.841,0,0,1,57.428-9.3a2.818,2.818,0,0,1,2.072-.812,2.272,2.272,0,0,1,1.624.588,2.378,2.378,0,0,1,.588,1.736c0,.532-.112,1.512-.168,1.988l-.7,5.8H62.86l.784-6.356a16.923,16.923,0,0,0,.168-1.932,3.454,3.454,0,0,0-.924-2.6A3.8,3.8,0,0,0,60.116-11.9a4.025,4.025,0,0,0-2.156.532,5.1,5.1,0,0,0-1.176,1.092l.168-1.344H54.936ZM66.752-4.928h6.16L73.164-7H67ZM75.6,0h2.016L78.4-6.328a5.153,5.153,0,0,1,1.12-3.108,2.261,2.261,0,0,1,1.652-.672,1.926,1.926,0,0,1,1.484.56,3.049,3.049,0,0,1,.476,2.66L82.292,0h2.016l.784-6.468a4.649,4.649,0,0,1,1.092-2.968,2.525,2.525,0,0,1,1.736-.672,1.972,1.972,0,0,1,1.456.56,2.228,2.228,0,0,1,.56,1.6,13.9,13.9,0,0,1-.168,1.736L88.984,0H91l.756-6.216c.112-1.008.224-1.708.224-2.324a3.112,3.112,0,0,0-.924-2.38,3.76,3.76,0,0,0-2.716-.98,4.042,4.042,0,0,0-2.184.56,3.726,3.726,0,0,0-1.232,1.316,3.336,3.336,0,0,0-1.176-1.4,3.735,3.735,0,0,0-1.932-.476,3.479,3.479,0,0,0-1.792.448,3.155,3.155,0,0,0-1.12,1.064l.14-1.232H77.028ZM98.168-11.62H96.152l-.728,5.964c-.056.5-.168,1.428-.168,1.988A3.581,3.581,0,0,0,96.4-.728,4.854,4.854,0,0,0,99.792.336a4.66,4.66,0,0,0,3.36-1.2c1.036-1.064,1.232-2.548,1.428-4.088l.812-6.664h-2.016l-.784,6.44c-.168,1.316-.308,2.352-.98,3.024a2.726,2.726,0,0,1-1.876.7A2.659,2.659,0,0,1,98-2.044a2.27,2.27,0,0,1-.7-1.932,13.239,13.239,0,0,1,.112-1.512ZM107.772,0h2.016l.756-6.132a5.378,5.378,0,0,1,1.148-3.248,2.089,2.089,0,0,1,1.54-.616,1.889,1.889,0,0,1,1.2.392l1.176-1.82A3,3,0,0,0,113.9-11.9a3.258,3.258,0,0,0-1.68.42,3.251,3.251,0,0,0-1.176,1.12l.168-1.26H109.2Zm10.5-1.624a4.532,4.532,0,0,0,1.316,1.316,4.953,4.953,0,0,0,2.66.644,5.508,5.508,0,0,0,4.172-1.512,7.557,7.557,0,0,0,2.044-5.376,5.28,5.28,0,0,0-1.512-4,5.065,5.065,0,0,0-3.64-1.344,4.775,4.775,0,0,0-2.38.532A4.914,4.914,0,0,0,119.308-10l.2-1.624h-2.016l-2.24,18.06h2.016Zm3.92.168a3.325,3.325,0,0,1-2.6-1.12,4.079,4.079,0,0,1-.952-2.772,5.161,5.161,0,0,1,1.288-3.528,3.694,3.694,0,0,1,2.884-1.232,3.389,3.389,0,0,1,2.576.98,3.74,3.74,0,0,1,1.008,2.716,5.492,5.492,0,0,1-1.568,3.976A3.686,3.686,0,0,1,122.192-1.456ZM130.844,0h2.016l.756-6.076a5.841,5.841,0,0,1,1.148-3.22,2.818,2.818,0,0,1,2.072-.812,2.272,2.272,0,0,1,1.624.588,2.378,2.378,0,0,1,.588,1.736c0,.532-.112,1.512-.168,1.988l-.7,5.8H140.2l.784-6.356a16.923,16.923,0,0,0,.168-1.932,3.454,3.454,0,0,0-.924-2.6,3.905,3.905,0,0,0-2.8-1.008,3.992,3.992,0,0,0-2.128.532,5.1,5.1,0,0,0-1.176,1.092l1.26-10.136h-2.016Zm12.32,6.44h2.24l10.752-18.06h-2.3L149.044-3.3l-3.08-8.316h-2.24l4.06,10.528Zm13.8-11.368h6.16L163.38-7h-6.16Zm19.04-5.04A4.337,4.337,0,0,0,174.5-11.34a6.315,6.315,0,0,0-2.52-.56,5.965,5.965,0,0,0-4.144,1.6,7.183,7.183,0,0,0-2.016,5.04A5.86,5.86,0,0,0,167.524-.98,4.873,4.873,0,0,0,171.08.336a4.81,4.81,0,0,0,2.268-.5,4.41,4.41,0,0,0,1.624-1.456L174.776,0h2.016l2.52-20.412H177.3Zm-3.948-.14A3.274,3.274,0,0,1,174.58-9.1a4.366,4.366,0,0,1,1.064,2.968A5.468,5.468,0,0,1,174.3-2.464a3.7,3.7,0,0,1-2.744,1.008,3.31,3.31,0,0,1-2.576-1.036,4.2,4.2,0,0,1-1.092-2.968,4.912,4.912,0,0,1,1.456-3.612A3.817,3.817,0,0,1,172.06-10.108Zm17.7,6.216A5.8,5.8,0,0,1,188.244-2.1a3.783,3.783,0,0,1-2.24.644,3.047,3.047,0,0,1-2.3-.868,4.041,4.041,0,0,1-1.036-3.08h9.044c.308-2.66-.476-4.256-1.316-5.124a5.078,5.078,0,0,0-3.78-1.372,5.359,5.359,0,0,0-4.06,1.624,7,7,0,0,0-1.988,4.984,5.761,5.761,0,0,0,1.54,4.172A4.876,4.876,0,0,0,185.948.336a5.961,5.961,0,0,0,3.36-.9,8.164,8.164,0,0,0,2.156-2.408Zm-6.748-3.192a4.4,4.4,0,0,1,1.12-2.044,3.354,3.354,0,0,1,2.548-.98,2.99,2.99,0,0,1,2.128.728,3.441,3.441,0,0,1,.98,2.3Zm10.864-4.536,4.2,12.376L205.3-11.62H203l-4.424,7.84-2.52-7.84ZM203.98-.98a1.266,1.266,0,0,0,.336.9,1.314,1.314,0,0,0,.952.364,1.543,1.543,0,0,0,1.008-.364,1.463,1.463,0,0,0,.532-1.12,1.333,1.333,0,0,0-.364-.952,1.265,1.265,0,0,0-.924-.364,1.479,1.479,0,0,0-1.092.448A1.531,1.531,0,0,0,203.98-.98Zm16.884-9.8a6.691,6.691,0,0,0-3.78-1.12,6.5,6.5,0,0,0-4.7,1.764,6.961,6.961,0,0,0-2.016,4.872A5.718,5.718,0,0,0,211.9-1.2a5.388,5.388,0,0,0,4.088,1.54,6.642,6.642,0,0,0,2.072-.308,5.465,5.465,0,0,0,1.68-.9l.28-2.408A5.417,5.417,0,0,1,218.4-1.96a4.372,4.372,0,0,1-2.156.5,3.61,3.61,0,0,1-2.688-1.008,3.979,3.979,0,0,1-1.12-2.912A4.775,4.775,0,0,1,213.92-8.9a4.382,4.382,0,0,1,3.108-1.2,4.561,4.561,0,0,1,2.1.5,6.082,6.082,0,0,1,1.456,1.232ZM228.312.336a6.614,6.614,0,0,0,4.844-1.792,6.83,6.83,0,0,0,1.96-5.04,5.148,5.148,0,0,0-1.428-3.808,5.74,5.74,0,0,0-4.256-1.6,6.519,6.519,0,0,0-4.648,1.736,6.408,6.408,0,0,0-2.1,4.844,5.756,5.756,0,0,0,1.484,4.06A5.342,5.342,0,0,0,228.312.336ZM229.4-10.108a3.635,3.635,0,0,1,2.66,1.064,3.7,3.7,0,0,1,.952,2.576,5.527,5.527,0,0,1-1.4,3.668,4.183,4.183,0,0,1-3.164,1.344,3.554,3.554,0,0,1-2.688-1.092,3.724,3.724,0,0,1-1.008-2.632,4.986,4.986,0,0,1,1.484-3.64A4.46,4.46,0,0,1,229.4-10.108ZM237.5,0h2.016l.784-6.328a5.153,5.153,0,0,1,1.12-3.108,2.26,2.26,0,0,1,1.652-.672,1.926,1.926,0,0,1,1.484.56,3.049,3.049,0,0,1,.476,2.66L244.188,0H246.2l.784-6.468a4.649,4.649,0,0,1,1.092-2.968,2.525,2.525,0,0,1,1.736-.672,1.972,1.972,0,0,1,1.456.56,2.228,2.228,0,0,1,.56,1.6,13.9,13.9,0,0,1-.168,1.736L250.88,0H252.9l.756-6.216c.112-1.008.224-1.708.224-2.324a3.112,3.112,0,0,0-.924-2.38,3.76,3.76,0,0,0-2.716-.98,4.042,4.042,0,0,0-2.184.56,3.726,3.726,0,0,0-1.232,1.316,3.336,3.336,0,0,0-1.176-1.4,3.735,3.735,0,0,0-1.932-.476,3.479,3.479,0,0,0-1.792.448,3.155,3.155,0,0,0-1.12,1.064l.14-1.232h-2.016Z" transform="translate(1234 429)"/>
    </g>
    <g id="Group_2" data-name="Group 2" transform="translate(0 78)">
      <path id="instagram-brands" class="cls-4" d="M17.929,40.6a9.23,9.23,0,1,0,9.228,9.23A9.214,9.214,0,0,0,17.929,40.6Zm0,15.231a6,6,0,1,1,6-6,6.011,6.011,0,0,1-6,6ZM29.687,40.217a2.152,2.152,0,1,1-2.152-2.153A2.148,2.148,0,0,1,29.687,40.217ZM35.8,42.4c-.137-2.884-.8-5.438-2.907-7.543S28.233,32.1,25.35,31.952c-2.972-.169-11.878-.169-14.85,0-2.875.137-5.429.8-7.541,2.9S.2,39.511.051,42.394c-.169,2.972-.169,11.881,0,14.853.137,2.884.8,5.438,2.907,7.543S7.617,67.554,10.5,67.7c2.972.169,11.878.169,14.85,0,2.883-.137,5.437-.8,7.541-2.908s2.763-4.659,2.907-7.543C35.967,54.275,35.967,45.375,35.8,42.4ZM31.96,60.437a6.074,6.074,0,0,1-3.421,3.422c-2.369.94-7.991.723-10.609.723s-8.248.209-10.609-.723A6.074,6.074,0,0,1,3.9,60.437c-.94-2.37-.723-7.993-.723-10.612s-.209-8.25.723-10.612A6.075,6.075,0,0,1,7.32,35.791c2.369-.94,7.991-.723,10.609-.723s8.248-.209,10.609.723a6.074,6.074,0,0,1,3.421,3.422c.94,2.37.723,7.993.723,10.612S32.9,58.075,31.96,60.437Z" transform="translate(1163.075 292.175)"/>
      <path id="Path_11" data-name="Path 11" class="cls-4" d="M14.952-11.956a3.083,3.083,0,0,0-.812-1.4,3.185,3.185,0,0,0-2.184-.756A4.822,4.822,0,0,0,8.428-12.6,6.945,6.945,0,0,0,6.5-7.868,4.04,4.04,0,0,0,7.56-4.9a3.452,3.452,0,0,0,2.548.98,3.927,3.927,0,0,0,2.184-.616,4.57,4.57,0,0,0,1.372-1.372,1.692,1.692,0,0,0,.588,1.316,2.041,2.041,0,0,0,1.512.56,4.368,4.368,0,0,0,2.912-1.316c1.708-1.68,2.24-4.62,2.24-6.272a6.945,6.945,0,0,0-2.044-5.068,8.177,8.177,0,0,0-5.964-2.24A10.622,10.622,0,0,0,5.1-15.68,11.269,11.269,0,0,0,2.072-7.952a7.87,7.87,0,0,0,2.24,5.768A8.549,8.549,0,0,0,10.892.364,14.248,14.248,0,0,0,17.36-.98l-.252-1.288A13.3,13.3,0,0,1,11.368-.98,8.364,8.364,0,0,1,5.376-3.108,7.48,7.48,0,0,1,3.5-8.176a9.641,9.641,0,0,1,2.66-6.692A9.014,9.014,0,0,1,12.8-17.584a7.225,7.225,0,0,1,4.788,1.624,5.956,5.956,0,0,1,1.988,4.676A7.438,7.438,0,0,1,17.64-6.076a2.981,2.981,0,0,1-1.876.812.883.883,0,0,1-.672-.252.946.946,0,0,1-.28-.812,7.2,7.2,0,0,1,.336-1.54L17-13.748H15.54ZM10.416-5.432a2.128,2.128,0,0,1-1.484-.5,2.742,2.742,0,0,1-.784-2.1A5.4,5.4,0,0,1,9.464-11.48a3.492,3.492,0,0,1,2.52-1.12,2.285,2.285,0,0,1,1.54.588,2.488,2.488,0,0,1,.672,1.82,5.737,5.737,0,0,1-1.54,3.808A3.055,3.055,0,0,1,10.416-5.432Zm17.416-4.34.224-1.848H26.04l.5-4.2H24.528l-.5,4.2H22.792l-.224,1.848H23.8L22.6,0h2.016l1.2-9.772ZM28.532,0h2.016L31.3-6.076A5.841,5.841,0,0,1,32.452-9.3a2.818,2.818,0,0,1,2.072-.812,2.272,2.272,0,0,1,1.624.588,2.378,2.378,0,0,1,.588,1.736c0,.532-.112,1.512-.168,1.988l-.7,5.8h2.016l.784-6.356a16.923,16.923,0,0,0,.168-1.932,3.454,3.454,0,0,0-.924-2.6,3.905,3.905,0,0,0-2.8-1.008,3.992,3.992,0,0,0-2.128.532,5.1,5.1,0,0,0-1.176,1.092l1.26-10.136H31.052ZM50.54-3.892A5.8,5.8,0,0,1,49.028-2.1a3.783,3.783,0,0,1-2.24.644,3.047,3.047,0,0,1-2.3-.868A4.041,4.041,0,0,1,43.456-5.4H52.5c.308-2.66-.476-4.256-1.316-5.124A5.078,5.078,0,0,0,47.4-11.9a5.359,5.359,0,0,0-4.06,1.624,7,7,0,0,0-1.988,4.984A5.761,5.761,0,0,0,42.9-1.12,4.876,4.876,0,0,0,46.732.336a5.961,5.961,0,0,0,3.36-.9,8.164,8.164,0,0,0,2.156-2.408ZM43.792-7.084a4.4,4.4,0,0,1,1.12-2.044,3.354,3.354,0,0,1,2.548-.98,2.99,2.99,0,0,1,2.128.728,3.441,3.441,0,0,1,.98,2.3Zm21.588-3.7A6.691,6.691,0,0,0,61.6-11.9a6.5,6.5,0,0,0-4.7,1.764A6.961,6.961,0,0,0,54.88-5.264,5.718,5.718,0,0,0,56.42-1.2,5.388,5.388,0,0,0,60.508.336,6.642,6.642,0,0,0,62.58.028a5.465,5.465,0,0,0,1.68-.9l.28-2.408A5.417,5.417,0,0,1,62.916-1.96a4.372,4.372,0,0,1-2.156.5,3.61,3.61,0,0,1-2.688-1.008,3.979,3.979,0,0,1-1.12-2.912A4.775,4.775,0,0,1,58.436-8.9a4.382,4.382,0,0,1,3.108-1.2,4.561,4.561,0,0,1,2.1.5A6.082,6.082,0,0,1,65.1-8.372ZM67.228,0h2.016L70-6.132A5.378,5.378,0,0,1,71.148-9.38,2.089,2.089,0,0,1,72.688-10a1.889,1.889,0,0,1,1.2.392l1.176-1.82A3,3,0,0,0,73.36-11.9a3.258,3.258,0,0,0-1.68.42A3.251,3.251,0,0,0,70.5-10.36l.168-1.26H68.656Zm9.716-11.62L75.516,0h2.016L78.96-11.62Zm.112-4.228a1.2,1.2,0,0,0,.336.868,1.269,1.269,0,0,0,.952.392,1.5,1.5,0,0,0,1.12-.476,1.532,1.532,0,0,0,.448-1.12,1.245,1.245,0,0,0-.364-.924,1.182,1.182,0,0,0-.9-.336,1.531,1.531,0,0,0-1.2.532A1.644,1.644,0,0,0,77.056-15.848ZM81.34,0h2.016l.784-6.328a5.153,5.153,0,0,1,1.12-3.108,2.261,2.261,0,0,1,1.652-.672,1.926,1.926,0,0,1,1.484.56,3.049,3.049,0,0,1,.476,2.66L88.032,0h2.016l.784-6.468a4.649,4.649,0,0,1,1.092-2.968,2.525,2.525,0,0,1,1.736-.672,1.972,1.972,0,0,1,1.456.56,2.228,2.228,0,0,1,.56,1.6,13.9,13.9,0,0,1-.168,1.736L94.724,0H96.74L97.5-6.216c.112-1.008.224-1.708.224-2.324a3.112,3.112,0,0,0-.924-2.38,3.76,3.76,0,0,0-2.716-.98,4.042,4.042,0,0,0-2.184.56,3.726,3.726,0,0,0-1.232,1.316,3.336,3.336,0,0,0-1.176-1.4,3.735,3.735,0,0,0-1.932-.476,3.479,3.479,0,0,0-1.792.448,3.155,3.155,0,0,0-1.12,1.064l.14-1.232H82.768Zm26.74-9.8a3.734,3.734,0,0,0-1.064-1.4,3.118,3.118,0,0,0-2.1-.7,3.466,3.466,0,0,0-2.632.98,3.289,3.289,0,0,0-.98,2.38,2.6,2.6,0,0,0,.644,1.82,5.234,5.234,0,0,0,1.54,1.064l.644.308a8.63,8.63,0,0,1,1.2.7,1.473,1.473,0,0,1,.616,1.2,2.026,2.026,0,0,1-.588,1.484,2.285,2.285,0,0,1-1.568.5,1.875,1.875,0,0,1-1.4-.532,3.555,3.555,0,0,1-.7-1.372l-1.764.728A4.328,4.328,0,0,0,101.3-.42a3.546,3.546,0,0,0,2.436.756A4.408,4.408,0,0,0,107.072-.9a3.954,3.954,0,0,0,.98-2.688,2.931,2.931,0,0,0-.756-2.072,6.734,6.734,0,0,0-1.484-1.036l-1.064-.532A4.137,4.137,0,0,1,103.6-7.9a1.1,1.1,0,0,1-.336-.812,1.359,1.359,0,0,1,.448-1.036,1.637,1.637,0,0,1,1.12-.364,1.287,1.287,0,0,1,1.008.392,1.879,1.879,0,0,1,.476.784ZM115.892.336a6.614,6.614,0,0,0,4.844-1.792A6.83,6.83,0,0,0,122.7-6.5a5.148,5.148,0,0,0-1.428-3.808,5.74,5.74,0,0,0-4.256-1.6,6.519,6.519,0,0,0-4.648,1.736,6.408,6.408,0,0,0-2.1,4.844,5.756,5.756,0,0,0,1.484,4.06A5.342,5.342,0,0,0,115.892.336Zm1.092-10.444a3.635,3.635,0,0,1,2.66,1.064,3.7,3.7,0,0,1,.952,2.576A5.527,5.527,0,0,1,119.2-2.8a4.183,4.183,0,0,1-3.164,1.344,3.554,3.554,0,0,1-2.688-1.092,3.724,3.724,0,0,1-1.008-2.632,4.986,4.986,0,0,1,1.484-3.64A4.46,4.46,0,0,1,116.984-10.108ZM125.076,0h2.016l.756-6.076A5.841,5.841,0,0,1,129-9.3a2.818,2.818,0,0,1,2.072-.812,2.272,2.272,0,0,1,1.624.588,2.378,2.378,0,0,1,.588,1.736c0,.532-.112,1.512-.168,1.988l-.7,5.8h2.016l.784-6.356a16.92,16.92,0,0,0,.168-1.932,3.454,3.454,0,0,0-.924-2.6,3.8,3.8,0,0,0-2.772-1.008,4.025,4.025,0,0,0-2.156.532,5.1,5.1,0,0,0-1.176,1.092l.168-1.344H126.5Zm13.132,0h2.016l.756-6.076a5.841,5.841,0,0,1,1.148-3.22,2.818,2.818,0,0,1,2.072-.812,2.272,2.272,0,0,1,1.624.588,2.378,2.378,0,0,1,.588,1.736c0,.532-.112,1.512-.168,1.988l-.7,5.8h2.016l.784-6.356a16.923,16.923,0,0,0,.168-1.932,3.454,3.454,0,0,0-.924-2.6,3.8,3.8,0,0,0-2.772-1.008,4.025,4.025,0,0,0-2.156.532,5.1,5.1,0,0,0-1.176,1.092l.168-1.344h-2.016Zm23.6-10.78a6.691,6.691,0,0,0-3.78-1.12,6.5,6.5,0,0,0-4.7,1.764,6.961,6.961,0,0,0-2.016,4.872,5.718,5.718,0,0,0,1.54,4.06A5.388,5.388,0,0,0,156.94.336a6.642,6.642,0,0,0,2.072-.308,5.465,5.465,0,0,0,1.68-.9l.28-2.408a5.417,5.417,0,0,1-1.624,1.316,4.372,4.372,0,0,1-2.156.5A3.61,3.61,0,0,1,154.5-2.464a3.979,3.979,0,0,1-1.12-2.912A4.775,4.775,0,0,1,154.868-8.9a4.382,4.382,0,0,1,3.108-1.2,4.561,4.561,0,0,1,2.1.5,6.082,6.082,0,0,1,1.456,1.232ZM163.66,0h2.016l.756-6.076A5.841,5.841,0,0,1,167.58-9.3a2.818,2.818,0,0,1,2.072-.812,2.272,2.272,0,0,1,1.624.588,2.378,2.378,0,0,1,.588,1.736c0,.532-.112,1.512-.168,1.988L171,0h2.016l.784-6.356a16.92,16.92,0,0,0,.168-1.932,3.454,3.454,0,0,0-.924-2.6,3.905,3.905,0,0,0-2.8-1.008,3.992,3.992,0,0,0-2.128.532,5.1,5.1,0,0,0-1.176,1.092l1.26-10.136H166.18Zm14.56-11.62L176.792,0h2.016l1.428-11.62Zm.112-4.228a1.2,1.2,0,0,0,.336.868,1.269,1.269,0,0,0,.952.392,1.5,1.5,0,0,0,1.12-.476,1.532,1.532,0,0,0,.448-1.12,1.245,1.245,0,0,0-.364-.924,1.182,1.182,0,0,0-.9-.336,1.531,1.531,0,0,0-1.2.532A1.644,1.644,0,0,0,178.332-15.848ZM182.616,0h2.016l.756-6.076a5.841,5.841,0,0,1,1.148-3.22,2.818,2.818,0,0,1,2.072-.812,2.272,2.272,0,0,1,1.624.588,2.378,2.378,0,0,1,.588,1.736c0,.532-.112,1.512-.168,1.988l-.7,5.8h2.016l.784-6.356a16.923,16.923,0,0,0,.168-1.932,3.454,3.454,0,0,0-.924-2.6,3.8,3.8,0,0,0-2.772-1.008,4.025,4.025,0,0,0-2.156.532,5.1,5.1,0,0,0-1.176,1.092l.168-1.344h-2.016Z" transform="translate(1234 352)"/>
    </g>
  </g>
</svg>
