<svg xmlns="http://www.w3.org/2000/svg" xmlns:xlink="http://www.w3.org/1999/xlink" width="1500" height="500" viewBox="0 0 1500 500"><defs><filter id="a" x="397.48" y="-145.506" width="1567.038" height="1210.013" filterUnits="userSpaceOnUse"><feOffset dy="-18" input="SourceAlpha"/><feGaussianBlur stdDeviation="3" result="b"/><feFlood flood-color="#2b9eb3" flood-opacity="0.169"/><feComposite operator="in" in2="b"/><feComposite in="SourceGraphic"/></filter><clipPath id="d"><rect width="1500" height="500"/></clipPath></defs><g id="c" clip-path="url(#d)"><rect width="1500" height="500" fill="#dbd5b5"/><g transform="matrix(1, 0, 0, 1, 0, 0)" filter="url(#a)"><rect width="1500" height="500" transform="translate(406.48 631.49) rotate(-30)" fill="#2b9eb3"/></g><path d="M5.6,0H25.44c5.6,0,11.84-.8,16.08-5.04a15.722,15.722,0,0,0,4.32-11.44,10.885,10.885,0,0,0-3.44-8.48,13.217,13.217,0,0,0-6.08-3.2,10.9,10.9,0,0,0,5.6-4.08,13.531,13.531,0,0,0,2.48-8.32,12.453,12.453,0,0,0-3.44-9.12c-3.36-3.28-8.16-3.68-11.76-3.68H12.16ZM23.28-43.76h2.56c1.76,0,3.92.08,5.44,1.28a5.073,5.073,0,0,1,1.68,4,6.776,6.776,0,0,1-1.84,4.8c-1.84,1.76-4.72,2-6.8,2H21.84Zm-2.56,21.2h4.8c1.12,0,4.8.08,6.56,1.84a5.637,5.637,0,0,1,1.44,4A6.55,6.55,0,0,1,31.6-11.6c-1.92,1.76-5.68,2-8,2H19.12ZM52,0H63.52l1.92-15.2c.48-3.84,1.44-7.2,3.44-9.12a8.487,8.487,0,0,1,5.92-2.16,11.068,11.068,0,0,1,5.04,1.2L82.08-36a18.569,18.569,0,0,0-4.72-.56,13.352,13.352,0,0,0-6,1.44,11.166,11.166,0,0,0-4.48,4.72l1.04-5.28H56.4ZM84,18.32H96.96l34.48-54H117.92l-12,19.52L98-35.68H84.88L98.72-4.56Zm78.08-49.68a12.852,12.852,0,0,0-4.88-4.16,16.079,16.079,0,0,0-6.96-1.36,17.478,17.478,0,0,0-13.12,5.2c-3.44,3.52-5.76,8.8-5.76,15.36,0,6.16,2.16,10.32,4.8,13.12,3.12,3.28,6.64,4.4,11.04,4.4a16.98,16.98,0,0,0,6.64-1.28,15.515,15.515,0,0,0,5.04-4L158,0h11.52l4.4-35.68H162.4Zm-9.36,4.4a8.485,8.485,0,0,1,6,2,8.231,8.231,0,0,1,2.48,6.16,10.887,10.887,0,0,1-3.04,7.68,9.3,9.3,0,0,1-6.56,2.4,7.958,7.958,0,0,1-6.08-2.4,8.586,8.586,0,0,1-2.32-6.08,10.108,10.108,0,0,1,2.72-7.12A9.038,9.038,0,0,1,152.72-26.96Zm30.56-8.72L178.88,0H190.4l2.08-17.6c.24-1.92.72-5.36,2.8-7.52a6.92,6.92,0,0,1,5.2-1.92,5.924,5.924,0,0,1,4.24,1.52,6.144,6.144,0,0,1,1.44,4.32,42.369,42.369,0,0,1-.48,5.76L203.76,0h11.52l2.16-18.32a54.245,54.245,0,0,0,.56-6.8c0-2.16-.24-5.76-3.04-8.48-2.72-2.64-6.32-3.04-9.28-3.04a13.4,13.4,0,0,0-7.04,1.52,16.959,16.959,0,0,0-4.4,3.36l.56-3.92ZM254.08,0l8.16-31.84L271.6,0h4.64l17.04-31.84L293.6,0h12.32L304-53.36H293.52L276.24-21.44l-9.12-31.92H256.96L241.76,0Zm89.04-35.68-2.24,18.72c-.48,4.24-1.84,5.92-2.32,6.4a7.5,7.5,0,0,1-5.28,2,7.577,7.577,0,0,1-4.72-1.52A5.116,5.116,0,0,1,327.04-14c0-.88.16-1.68.4-3.92l2.08-17.76H318l-2.16,18.16a46.042,46.042,0,0,0-.4,5.04,13.266,13.266,0,0,0,3.84,9.6c4,3.84,10.32,4.08,13.92,4.08,4.08,0,9.76-.48,14-4.56,4-3.84,4.72-8.8,5.2-13.04l2.24-19.28ZM359.36,0h11.52l1.92-15.2c.48-3.84,1.44-7.2,3.44-9.12a8.487,8.487,0,0,1,5.92-2.16,11.068,11.068,0,0,1,5.04,1.2L389.44-36a18.569,18.569,0,0,0-4.72-.56,13.352,13.352,0,0,0-6,1.44,11.166,11.166,0,0,0-4.48,4.72l1.04-5.28H363.76ZM402.4-4.4a13.415,13.415,0,0,0,4.64,4.08A16.626,16.626,0,0,0,414.8,1.2a15.973,15.973,0,0,0,12.08-4.8c3.52-3.52,6-9.2,6-16,0-5.52-1.84-10.48-4.72-13.36-1.92-1.84-5.28-3.92-10.8-3.92A15.324,15.324,0,0,0,410-35.2a14.9,14.9,0,0,0-4.48,3.68l.64-4.16H394.64l-6.64,54h11.52Zm10.48-22.56a8.574,8.574,0,0,1,5.68,2.08,8.584,8.584,0,0,1,2.48,6,11.327,11.327,0,0,1-3.2,7.68,9.436,9.436,0,0,1-6.4,2.48,8.3,8.3,0,0,1-6-2.48,8.338,8.338,0,0,1-2.16-5.84,9.646,9.646,0,0,1,2.88-7.2A9.037,9.037,0,0,1,412.88-26.96Zm32.56-31.36L438.24,0h11.52l2.08-17.6c.24-1.92.72-5.44,2.8-7.52A6.974,6.974,0,0,1,460-27.04a5.8,5.8,0,0,1,4.08,1.52,6.144,6.144,0,0,1,1.44,4.32,42.369,42.369,0,0,1-.48,5.76L463.12,0h11.52l2.16-18.32a54.249,54.249,0,0,0,.56-6.8c0-2.16-.24-5.76-3.04-8.48-2.72-2.64-6.24-3.04-9.04-3.04A13.928,13.928,0,0,0,458-35.12a17.324,17.324,0,0,0-4.4,3.36l3.36-26.56Zm36.88,76.64h12.96l34.48-54H516.24l-12,19.52-7.92-19.52H483.2L497.04-4.56Z" transform="translate(143 179)" fill="#f8333c"/><path d="M4.128,47H10.32c6.1,0,11.184-.864,15.12-4.9,3.792-3.888,4.656-9.072,4.656-12.768,0-5.28-1.92-8.448-3.888-10.368-3.648-3.456-8.736-3.984-12.336-3.984H8.064Zm7.056-28.656H14.3c2.256,0,6.192.24,9.168,3.312a10.973,10.973,0,0,1,2.88,7.968c0,2.5-.48,7.008-3.7,10.224-2.928,2.928-6.96,3.792-12.192,3.792H8.112Zm38.3,21.984A9.95,9.95,0,0,1,46.9,43.4a6.484,6.484,0,0,1-3.84,1.1,5.223,5.223,0,0,1-3.936-1.488,6.927,6.927,0,0,1-1.776-5.28h15.5c.528-4.56-.816-7.3-2.256-8.784a8.705,8.705,0,0,0-6.48-2.352,9.188,9.188,0,0,0-6.96,2.784,12,12,0,0,0-3.408,8.544,9.876,9.876,0,0,0,2.64,7.152,8.358,8.358,0,0,0,6.576,2.5,10.219,10.219,0,0,0,5.76-1.536,14,14,0,0,0,3.7-4.128ZM37.92,34.856a7.548,7.548,0,0,1,1.92-3.5,5.75,5.75,0,0,1,4.368-1.68,5.126,5.126,0,0,1,3.648,1.248,5.9,5.9,0,0,1,1.68,3.936ZM69.984,30.2a6.4,6.4,0,0,0-1.824-2.4,5.345,5.345,0,0,0-3.6-1.2,5.942,5.942,0,0,0-4.512,1.68,5.638,5.638,0,0,0-1.68,4.08,4.458,4.458,0,0,0,1.1,3.12,8.973,8.973,0,0,0,2.64,1.824l1.1.528a14.794,14.794,0,0,1,2.064,1.2A2.526,2.526,0,0,1,66.336,41.1a3.474,3.474,0,0,1-1.008,2.544,3.918,3.918,0,0,1-2.688.864,3.214,3.214,0,0,1-2.4-.912,6.094,6.094,0,0,1-1.2-2.352l-3.024,1.248a7.419,7.419,0,0,0,2.352,3.792,6.079,6.079,0,0,0,4.176,1.3,7.557,7.557,0,0,0,5.712-2.112,6.779,6.779,0,0,0,1.68-4.608,5.025,5.025,0,0,0-1.3-3.552A11.544,11.544,0,0,0,66.1,35.528l-1.824-.912A7.093,7.093,0,0,1,62.3,33.464a1.884,1.884,0,0,1-.576-1.392A2.33,2.33,0,0,1,62.5,30.3a2.806,2.806,0,0,1,1.92-.624,2.206,2.206,0,0,1,1.728.672,3.222,3.222,0,0,1,.816,1.344Zm6.24-3.12L73.776,47h3.456L79.68,27.08Zm.192-7.248a2.065,2.065,0,0,0,.576,1.488,2.175,2.175,0,0,0,1.632.672,2.57,2.57,0,0,0,1.92-.816,2.626,2.626,0,0,0,.768-1.92,2.134,2.134,0,0,0-.624-1.584,2.027,2.027,0,0,0-1.536-.576,2.624,2.624,0,0,0-2.064.912A2.818,2.818,0,0,0,76.416,19.832Zm24.72,10.08a6.7,6.7,0,0,0-2.5-2.352,9.314,9.314,0,0,0-4.416-.96,9.84,9.84,0,0,0-7.392,2.928,12.744,12.744,0,0,0-3.216,8.736,9.343,9.343,0,0,0,2.5,6.768,8.567,8.567,0,0,0,6.576,2.544,9.029,9.029,0,0,0,3.84-.864,7.124,7.124,0,0,0,2.832-2.5l-.288,2.88c-.192,1.824-.432,4.368-2.208,6.1a6.888,6.888,0,0,1-5.04,1.776A5.906,5.906,0,0,1,87.7,53.576a5.68,5.68,0,0,1-1.584-4.464V48.92H82.7v.288a9.224,9.224,0,0,0,2.256,6.48c1.2,1.2,3.264,2.352,6.72,2.352,4.08,0,6.48-1.536,7.776-2.88,2.352-2.4,2.736-5.52,3.12-8.64l2.352-19.44h-3.456Zm-6.528-.24a5.461,5.461,0,0,1,4.176,1.68,7.374,7.374,0,0,1,1.728,4.8,9.481,9.481,0,0,1-2.544,6.624,7.165,7.165,0,0,1-4.9,1.728,5.564,5.564,0,0,1-4.08-1.584,6.886,6.886,0,0,1-1.776-4.9A8.813,8.813,0,0,1,89.808,31.5,6.744,6.744,0,0,1,94.608,29.672ZM109.008,47h3.456l1.3-10.416c.24-1.776.624-4.128,1.968-5.52a4.831,4.831,0,0,1,3.552-1.392,3.9,3.9,0,0,1,2.784,1.008,4.076,4.076,0,0,1,1.008,2.976c0,.912-.192,2.592-.288,3.408L121.584,47h3.456l1.344-10.9a29.01,29.01,0,0,0,.288-3.312,5.922,5.922,0,0,0-1.584-4.464,6.52,6.52,0,0,0-4.752-1.728,6.9,6.9,0,0,0-3.7.912,8.737,8.737,0,0,0-2.016,1.872l.288-2.3h-3.456ZM162.1,14.984H147.5L143.568,47h3.552l1.968-15.84h10.656l.384-3.36H149.472l1.152-9.456h11.04Zm9.024,32.592a11.339,11.339,0,0,0,8.3-3.072,11.709,11.709,0,0,0,3.36-8.64,8.825,8.825,0,0,0-2.448-6.528,9.84,9.84,0,0,0-7.3-2.736,11.176,11.176,0,0,0-7.968,2.976,10.985,10.985,0,0,0-3.6,8.3,9.867,9.867,0,0,0,2.544,6.96A9.158,9.158,0,0,0,171.12,47.576Zm1.872-17.9a6.232,6.232,0,0,1,4.56,1.824,6.337,6.337,0,0,1,1.632,4.416,9.475,9.475,0,0,1-2.4,6.288,7.171,7.171,0,0,1-5.424,2.3,6.093,6.093,0,0,1-4.608-1.872,6.384,6.384,0,0,1-1.728-4.512,8.547,8.547,0,0,1,2.544-6.24A7.646,7.646,0,0,1,172.992,29.672Zm31.824-1.152a11.47,11.47,0,0,0-6.48-1.92,11.139,11.139,0,0,0-8.064,3.024,11.932,11.932,0,0,0-3.456,8.352,9.8,9.8,0,0,0,2.64,6.96,9.236,9.236,0,0,0,7.008,2.64,11.387,11.387,0,0,0,3.552-.528,9.368,9.368,0,0,0,2.88-1.536l.48-4.128a9.287,9.287,0,0,1-2.784,2.256,7.5,7.5,0,0,1-3.7.864,6.188,6.188,0,0,1-4.608-1.728,6.821,6.821,0,0,1-1.92-4.992,8.186,8.186,0,0,1,2.544-6.048,7.511,7.511,0,0,1,5.328-2.064,7.818,7.818,0,0,1,3.6.864,10.427,10.427,0,0,1,2.5,2.112Zm9.024-1.44h-3.456L209.136,37.3c-.1.864-.288,2.448-.288,3.408a6.139,6.139,0,0,0,1.968,5.04,8.321,8.321,0,0,0,5.808,1.824,7.988,7.988,0,0,0,5.76-2.064c1.776-1.824,2.112-4.368,2.448-7.008l1.392-11.424h-3.456l-1.344,11.04c-.288,2.256-.528,4.032-1.68,5.184a4.674,4.674,0,0,1-3.216,1.2,4.559,4.559,0,0,1-2.976-1.008,3.892,3.892,0,0,1-1.2-3.312,22.694,22.694,0,0,1,.192-2.592Zm29.472,3.12a6.4,6.4,0,0,0-1.824-2.4,5.345,5.345,0,0,0-3.6-1.2,5.942,5.942,0,0,0-4.512,1.68,5.638,5.638,0,0,0-1.68,4.08,4.458,4.458,0,0,0,1.1,3.12,8.973,8.973,0,0,0,2.64,1.824l1.1.528a14.794,14.794,0,0,1,2.064,1.2,2.526,2.526,0,0,1,1.056,2.064,3.474,3.474,0,0,1-1.008,2.544,3.918,3.918,0,0,1-2.688.864,3.214,3.214,0,0,1-2.4-.912,6.094,6.094,0,0,1-1.2-2.352l-3.024,1.248A7.419,7.419,0,0,0,231.7,46.28a6.079,6.079,0,0,0,4.176,1.3,7.557,7.557,0,0,0,5.712-2.112,6.779,6.779,0,0,0,1.68-4.608,5.025,5.025,0,0,0-1.3-3.552,11.544,11.544,0,0,0-2.544-1.776l-1.824-.912a7.093,7.093,0,0,1-1.968-1.152,1.884,1.884,0,0,1-.576-1.392,2.33,2.33,0,0,1,.768-1.776,2.806,2.806,0,0,1,1.92-.624,2.206,2.206,0,0,1,1.728.672,3.222,3.222,0,0,1,.816,1.344ZM262.8,40.328a9.95,9.95,0,0,1-2.592,3.072,6.484,6.484,0,0,1-3.84,1.1,5.223,5.223,0,0,1-3.936-1.488,6.927,6.927,0,0,1-1.776-5.28h15.5c.528-4.56-.816-7.3-2.256-8.784a8.705,8.705,0,0,0-6.48-2.352,9.188,9.188,0,0,0-6.96,2.784,12,12,0,0,0-3.408,8.544,9.876,9.876,0,0,0,2.64,7.152,8.358,8.358,0,0,0,6.576,2.5,10.219,10.219,0,0,0,5.76-1.536,14,14,0,0,0,3.7-4.128Zm-11.568-5.472a7.548,7.548,0,0,1,1.92-3.5,5.75,5.75,0,0,1,4.368-1.68,5.126,5.126,0,0,1,3.648,1.248,5.9,5.9,0,0,1,1.68,3.936Zm36.528-4.944a7.434,7.434,0,0,0-2.592-2.352,10.826,10.826,0,0,0-4.32-.96,10.226,10.226,0,0,0-7.1,2.736,12.313,12.313,0,0,0-3.456,8.64,10.045,10.045,0,0,0,2.928,7.344,8.353,8.353,0,0,0,6.1,2.256,8.246,8.246,0,0,0,3.888-.864,7.559,7.559,0,0,0,2.784-2.5L285.648,47H289.1l4.32-34.992h-3.456Zm-6.768-.24a5.612,5.612,0,0,1,4.32,1.728,7.485,7.485,0,0,1,1.824,5.088,9.374,9.374,0,0,1-2.3,6.288,6.349,6.349,0,0,1-4.7,1.728,5.675,5.675,0,0,1-4.416-1.776,7.194,7.194,0,0,1-1.872-5.088,8.42,8.42,0,0,1,2.5-6.192A6.543,6.543,0,0,1,280.992,29.672Zm45.216-14.688H311.616L307.68,47h3.552L313.2,31.16h10.656l.384-3.36H313.584l1.152-9.456h11.04Zm5.76,12.1h-3.456L327.264,37.3c-.1.864-.288,2.448-.288,3.408a6.139,6.139,0,0,0,1.968,5.04,8.321,8.321,0,0,0,5.808,1.824,7.988,7.988,0,0,0,5.76-2.064c1.776-1.824,2.112-4.368,2.448-7.008l1.392-11.424H340.9l-1.344,11.04c-.288,2.256-.528,4.032-1.68,5.184a4.674,4.674,0,0,1-3.216,1.2A4.559,4.559,0,0,1,331.68,43.5a3.892,3.892,0,0,1-1.2-3.312,22.694,22.694,0,0,1,.192-2.592Zm20.784-15.072L348.432,47h3.456l4.32-34.992Zm9.984,0L358.416,47h3.456l4.32-34.992Zm38.208,7.44a7.8,7.8,0,0,0-2.88-3.648,9.7,9.7,0,0,0-5.28-1.344,9.533,9.533,0,0,0-7.056,2.688,7.979,7.979,0,0,0-2.5,6.048,6.887,6.887,0,0,0,1.824,4.944,13.542,13.542,0,0,0,3.792,2.448l2.544,1.2a15.81,15.81,0,0,1,3.12,1.92,5.418,5.418,0,0,1,1.728,4.08,6.937,6.937,0,0,1-1.728,4.656,6.644,6.644,0,0,1-4.992,1.776,5.807,5.807,0,0,1-4.56-1.68,6.6,6.6,0,0,1-1.728-4.176l-3.552.96a10.086,10.086,0,0,0,2.688,5.856c1.92,1.92,4.032,2.4,6.624,2.4a10.948,10.948,0,0,0,8.3-3.072,10.152,10.152,0,0,0,2.688-7.248,7.124,7.124,0,0,0-2.16-5.616,12.974,12.974,0,0,0-4.08-2.736l-2.88-1.344a14.666,14.666,0,0,1-2.688-1.68,3.872,3.872,0,0,1-1.344-2.928,5.279,5.279,0,0,1,1.68-3.792,5.832,5.832,0,0,1,4.032-1.344,5.6,5.6,0,0,1,3.6,1.008,5.486,5.486,0,0,1,1.776,2.5Zm12.576,10.8.384-3.168h-3.456l.864-7.2h-3.456l-.864,7.2H404.88l-.384,3.168h2.112L404.544,47H408l2.064-16.752Zm18.672-.336a6.679,6.679,0,0,0-2.64-2.352,8.715,8.715,0,0,0-4.224-.96,9.8,9.8,0,0,0-7.152,2.592,11.95,11.95,0,0,0-3.456,8.832,9.928,9.928,0,0,0,2.592,7.1,9.47,9.47,0,0,0,10.608,1.44,8.376,8.376,0,0,0,2.5-2.352L430.08,47h3.456l2.448-19.92h-3.456Zm-6.576-.24a5.752,5.752,0,0,1,4.08,1.584,6.336,6.336,0,0,1,1.872,4.8,9.66,9.66,0,0,1-2.256,6.48,6.422,6.422,0,0,1-4.944,1.968,5.575,5.575,0,0,1-4.032-1.488,7.243,7.243,0,0,1-2.064-5.232,8.836,8.836,0,0,1,2.544-6.24A6.823,6.823,0,0,1,425.616,29.672Zm32.4-1.152a11.47,11.47,0,0,0-6.48-1.92,11.139,11.139,0,0,0-8.064,3.024,11.932,11.932,0,0,0-3.456,8.352,9.8,9.8,0,0,0,2.64,6.96,9.236,9.236,0,0,0,7.008,2.64,11.387,11.387,0,0,0,3.552-.528,9.368,9.368,0,0,0,2.88-1.536l.48-4.128a9.287,9.287,0,0,1-2.784,2.256,7.5,7.5,0,0,1-3.7.864,6.188,6.188,0,0,1-4.608-1.728,6.821,6.821,0,0,1-1.92-4.992,8.185,8.185,0,0,1,2.544-6.048,7.511,7.511,0,0,1,5.328-2.064,7.818,7.818,0,0,1,3.6.864,10.426,10.426,0,0,1,2.5,2.112ZM465.5,12.008,461.184,47h3.456l1.008-8.208.96-.864L473.472,47h4.416L469.2,35.624l9.7-8.544h-4.512l-8.208,7.392,2.784-22.464Zm48.528,2.976H497.424L493.488,47H510.1l.432-3.36H497.472l1.488-12.432h12.672l.432-3.36H499.392l1.152-9.5H513.6ZM515.76,47h3.456l1.3-10.416c.24-1.776.624-4.128,1.968-5.52a4.831,4.831,0,0,1,3.552-1.392,3.9,3.9,0,0,1,2.784,1.008,4.076,4.076,0,0,1,1.008,2.976c0,.912-.192,2.592-.288,3.408L528.336,47h3.456l1.344-10.9a29.015,29.015,0,0,0,.288-3.312,5.922,5.922,0,0,0-1.584-4.464,6.52,6.52,0,0,0-4.752-1.728,6.9,6.9,0,0,0-3.7.912,8.738,8.738,0,0,0-2.016,1.872l.288-2.3h-3.456Zm39.888-17.088a6.7,6.7,0,0,0-2.5-2.352,9.314,9.314,0,0,0-4.416-.96,9.84,9.84,0,0,0-7.392,2.928,12.744,12.744,0,0,0-3.216,8.736,9.342,9.342,0,0,0,2.5,6.768,8.567,8.567,0,0,0,6.576,2.544,9.029,9.029,0,0,0,3.84-.864,7.124,7.124,0,0,0,2.832-2.5l-.288,2.88c-.192,1.824-.432,4.368-2.208,6.1a6.887,6.887,0,0,1-5.04,1.776,5.906,5.906,0,0,1-4.128-1.392,5.68,5.68,0,0,1-1.584-4.464V48.92h-3.408v.288a9.224,9.224,0,0,0,2.256,6.48c1.2,1.2,3.264,2.352,6.72,2.352,4.08,0,6.48-1.536,7.776-2.88,2.352-2.4,2.736-5.52,3.12-8.64l2.352-19.44h-3.456Zm-6.528-.24a5.461,5.461,0,0,1,4.176,1.68,7.374,7.374,0,0,1,1.728,4.8,9.481,9.481,0,0,1-2.544,6.624,7.165,7.165,0,0,1-4.9,1.728,5.564,5.564,0,0,1-4.08-1.584,6.886,6.886,0,0,1-1.776-4.9A8.813,8.813,0,0,1,544.32,31.5,6.744,6.744,0,0,1,549.12,29.672Zm16.848-2.592L563.52,47h3.456l2.448-19.92Zm.192-7.248a2.065,2.065,0,0,0,.576,1.488,2.175,2.175,0,0,0,1.632.672,2.57,2.57,0,0,0,1.92-.816,2.626,2.626,0,0,0,.768-1.92,2.134,2.134,0,0,0-.624-1.584A2.027,2.027,0,0,0,568.9,17.1a2.624,2.624,0,0,0-2.064.912A2.818,2.818,0,0,0,566.16,19.832ZM573.5,47h3.456l1.3-10.416c.24-1.776.624-4.128,1.968-5.52a4.831,4.831,0,0,1,3.552-1.392,3.9,3.9,0,0,1,2.784,1.008,4.076,4.076,0,0,1,1.008,2.976c0,.912-.192,2.592-.288,3.408L586.08,47h3.456l1.344-10.9a29.015,29.015,0,0,0,.288-3.312,5.922,5.922,0,0,0-1.584-4.464,6.52,6.52,0,0,0-4.752-1.728,6.9,6.9,0,0,0-3.7.912,8.738,8.738,0,0,0-2.016,1.872l.288-2.3h-3.456Zm38.208-6.672A9.951,9.951,0,0,1,609.12,43.4a6.484,6.484,0,0,1-3.84,1.1,5.223,5.223,0,0,1-3.936-1.488,6.927,6.927,0,0,1-1.776-5.28h15.5c.528-4.56-.816-7.3-2.256-8.784a8.705,8.705,0,0,0-6.48-2.352,9.188,9.188,0,0,0-6.96,2.784,12,12,0,0,0-3.408,8.544,9.876,9.876,0,0,0,2.64,7.152,8.358,8.358,0,0,0,6.576,2.5,10.219,10.219,0,0,0,5.76-1.536,14,14,0,0,0,3.7-4.128Zm-11.568-5.472a7.547,7.547,0,0,1,1.92-3.5,5.75,5.75,0,0,1,4.368-1.68,5.126,5.126,0,0,1,3.648,1.248,5.9,5.9,0,0,1,1.68,3.936ZM634.9,40.328A9.951,9.951,0,0,1,632.3,43.4a6.484,6.484,0,0,1-3.84,1.1,5.223,5.223,0,0,1-3.936-1.488,6.927,6.927,0,0,1-1.776-5.28h15.5c.528-4.56-.816-7.3-2.256-8.784a8.705,8.705,0,0,0-6.48-2.352,9.188,9.188,0,0,0-6.96,2.784,12,12,0,0,0-3.408,8.544,9.876,9.876,0,0,0,2.64,7.152,8.358,8.358,0,0,0,6.576,2.5,10.219,10.219,0,0,0,5.76-1.536,14,14,0,0,0,3.7-4.128Zm-11.568-5.472a7.547,7.547,0,0,1,1.92-3.5,5.75,5.75,0,0,1,4.368-1.68,5.126,5.126,0,0,1,3.648,1.248,5.9,5.9,0,0,1,1.68,3.936ZM642.384,47h3.456l1.3-10.512c.24-1.968.576-4.224,1.968-5.568a3.58,3.58,0,0,1,2.64-1.056,3.238,3.238,0,0,1,2.064.672l2.016-3.12A5.134,5.134,0,0,0,652.9,26.6a5.636,5.636,0,0,0-4.9,2.64l.288-2.16h-3.456Z" transform="translate(322 208)" fill="#f8333c"/><g transform="translate(0 85)"><path d="M8.058,36.01H.595V11.975H8.058ZM4.322,8.7A4.343,4.343,0,1,1,8.645,4.333,4.359,4.359,0,0,1,4.322,8.7ZM35.992,36.01H28.544V24.31c0-2.788-.056-6.364-3.88-6.364-3.88,0-4.475,3.03-4.475,6.164v11.9H12.733V11.975h7.158v3.279H20a7.842,7.842,0,0,1,7.062-3.881c7.554,0,8.942,4.974,8.942,11.435v13.2Z" transform="translate(1163 231.99)" fill="#fff"/><text transform="translate(1235 260)" fill="#fff" font-size="28" font-family="FuturaPT-BookObl, Futura PT" font-style="oblique"><tspan x="0" y="0">/in/murphyb2/</tspan></text></g><g transform="translate(0 -168)"><path d="M43.352,48.554a9.8,9.8,0,0,0,2.17-5.24A10.292,10.292,0,0,0,35.311,32H19.286A1.286,1.286,0,0,0,18,33.286v3.857a1.286,1.286,0,0,0,1.286,1.286h2.561V61.571H19.286A1.286,1.286,0,0,0,18,62.857v3.857A1.286,1.286,0,0,0,19.286,68h16.82a11.237,11.237,0,0,0,11.33-9.836A10.888,10.888,0,0,0,43.352,48.554ZM28.258,38.429h7.052a3.857,3.857,0,0,1,0,7.714H28.258Zm7.052,23.143H28.258v-9h7.052a4.5,4.5,0,1,1,0,9Z" transform="translate(1148 369)" fill="#fff"/><text transform="translate(1234 429)" fill="#fff" font-size="28" font-family="FuturaPT-BookObl, Futura PT" font-style="oblique"><tspan x="0" y="0">bryan-murphy-dev.com</tspan></text></g><g transform="translate(0 78)"><path d="M17.929,40.6a9.23,9.23,0,1,0,9.228,9.23A9.214,9.214,0,0,0,17.929,40.6Zm0,15.231a6,6,0,1,1,6-6,6.011,6.011,0,0,1-6,6ZM29.687,40.217a2.152,2.152,0,1,1-2.152-2.153A2.148,2.148,0,0,1,29.687,40.217ZM35.8,42.4c-.137-2.884-.8-5.438-2.907-7.543S28.233,32.1,25.35,31.952c-2.972-.169-11.878-.169-14.85,0-2.875.137-5.429.8-7.541,2.9S.2,39.511.051,42.394c-.169,2.972-.169,11.881,0,14.853.137,2.884.8,5.438,2.907,7.543S7.617,67.554,10.5,67.7c2.972.169,11.878.169,14.85,0,2.883-.137,5.437-.8,7.541-2.908s2.763-4.659,2.907-7.543C35.967,54.275,35.967,45.375,35.8,42.4ZM31.96,60.437a6.074,6.074,0,0,1-3.421,3.422c-2.369.94-7.991.723-10.609.723s-8.248.209-10.609-.723A6.074,6.074,0,0,1,3.9,60.437c-.94-2.37-.723-7.993-.723-10.612s-.209-8.25.723-10.612A6.075,6.075,0,0,1,7.32,35.791c2.369-.94,7.991-.723,10.609-.723s8.248-.209,10.609.723a6.074,6.074,0,0,1,3.421,3.422c.94,2.37.723,7.993.723,10.612S32.9,58.075,31.96,60.437Z" transform="translate(1163.075 292.175)" fill="#fff"/><text transform="translate(1234 352)" fill="#fff" font-size="28" font-family="FuturaPT-BookObl, Futura PT" font-style="oblique"><tspan x="0" y="0">@thecrimsonnchin</tspan></text></g></g></svg>