<svg id="Layer_2" data-name="Layer 2" xmlns="http://www.w3.org/2000/svg" width="42" height="40.5" viewBox="0 0 42 40.5">
  <g id="Surfaces">
    <g id="UI_UX_Surface" data-name="UI/UX Surface">
      <g id="Outline_no_shadow" data-name="Outline no shadow">
        <path id="Path_83269" data-name="Path 83269" d="M7.435,0H34.565A7.435,7.435,0,0,1,42,7.435V33.065A7.435,7.435,0,0,1,34.565,40.5H7.435A7.435,7.435,0,0,1,0,33.065V7.435A7.435,7.435,0,0,1,7.435,0Z" fill="#470137"/>
      </g>
    </g>
  </g>
  <g id="Outlined_Mnemonics_Logos" data-name="Outlined Mnemonics &amp; Logos" transform="translate(6.402 9.075)">
    <g id="Xd">
      <path id="Path_83267" data-name="Path 83267" d="M24.26,14.325,19.1,22.633l5.522,8.994a.287.287,0,0,1,.028.208c-.019.065-.083.107-.194.125h-3.94a.622.622,0,0,1-.583-.278c-.371-.721-.74-1.385-1.11-2.1s-.763-1.438-1.179-2.178-.828-1.489-1.235-2.248h-.028q-.555,1.11-1.151,2.22t-1.18,2.206c-.389.731-.786,1.4-1.193,2.126a.393.393,0,0,1-.388.25h-3.8a.113.113,0,0,1-.125-.111.276.276,0,0,1,.041-.194l5.356-8.744L8.72,14.3c-.056-.074-.064-.134-.028-.18a.2.2,0,0,1,.167-.069h3.913a.58.58,0,0,1,.25.042.506.506,0,0,1,.166.153c.333.74.7,1.269,1.11,2.008s.818,1.471,1.235,2.192.8,1.452,1.152,2.192h.028q.555-1.138,1.123-2.22T19,16.237c.4-.731.781-1.245,1.152-1.967a.423.423,0,0,1,.111-.18.4.4,0,0,1,.222-.042h3.635a.159.159,0,0,1,.138.278Z" transform="translate(-8.536 -12.586)" fill="#ff61f6"/>
      <path id="Path_83268" data-name="Path 83268" d="M37.329,31.8a8.6,8.6,0,0,1-3.7-.777,5.892,5.892,0,0,1-2.595-2.345,7.5,7.5,0,0,1-.943-3.927,7.246,7.246,0,0,1,.943-3.635,6.928,6.928,0,0,1,2.747-2.664,8.869,8.869,0,0,1,4.357-1q.139,0,.361.014c.148.01.463.023.667.042V12.6a.447.447,0,0,1,.377-.5h2.686a.5.5,0,0,1,.5.5V28.419q0,.472.041,1.027t.07,1a.287.287,0,0,1-.166.278,12.73,12.73,0,0,1-2.677.833,15.052,15.052,0,0,1-2.664.25ZM39.1,28.363V20.787a3.868,3.868,0,0,0-.532-.083,5.508,5.508,0,0,0-.569-.028,4.284,4.284,0,0,0-1.942.444,3.571,3.571,0,0,0-2.026,3.469,4.9,4.9,0,0,0,.292,1.776,3.373,3.373,0,0,0,.777,1.221,2.958,2.958,0,0,0,1.165.694,4.565,4.565,0,0,0,1.429.222q.389,0,.722-.028A3.764,3.764,0,0,0,39.1,28.363Z" transform="translate(-13.922 -12.101)" fill="#ff61f6"/>
    </g>
  </g>
</svg>
